<svg width="1920" height="454" viewBox="0 0 1920 454" fill="none" xmlns="http://www.w3.org/2000/svg">
<rect width="1920" height="454" fill="#F4F5F7"/>
<path d="M714.421 453.522H308L474.082 60.1523H548.34L714.421 453.522Z" fill="#D0F0E4"/>
<path fill-rule="evenodd" clip-rule="evenodd" d="M511.212 22.8516L518.593 30.2145L517.916 30.8903L511.212 24.2032L504.508 30.8903L503.831 30.2145L511.212 22.8516Z" fill="#FFCF2D"/>
<path fill-rule="evenodd" clip-rule="evenodd" d="M511.69 0V23.5283H510.731V0H511.69Z" fill="#FFCF2D"/>
<path d="M511.21 72.4172C517.472 72.4172 522.548 67.3535 522.548 61.107C522.548 54.8606 517.472 49.7969 511.21 49.7969C504.948 49.7969 499.872 54.8606 499.872 61.107C499.872 67.3535 504.948 72.4172 511.21 72.4172Z" fill="#FFCF2D"/>
<path fill-rule="evenodd" clip-rule="evenodd" d="M511.21 50.2741C505.213 50.2741 500.351 55.1239 500.351 61.1064C500.351 67.0889 505.213 71.9387 511.21 71.9387C517.207 71.9387 522.069 67.0889 522.069 61.1064C522.069 55.1239 517.207 50.2741 511.21 50.2741ZM499.393 61.1064C499.393 54.596 504.683 49.3184 511.21 49.3184C517.736 49.3184 523.027 54.596 523.027 61.1064C523.027 67.6168 517.736 72.8944 511.21 72.8944C504.683 72.8944 499.393 67.6168 499.393 61.1064Z" fill="white"/>
<path fill-rule="evenodd" clip-rule="evenodd" d="M511.227 30.5066C493.707 30.5066 478.755 41.1648 475.556 55.746L474.693 59.674H547.745L546.881 55.73C546.881 55.7299 546.881 55.7299 546.881 55.7298C545.281 48.4373 540.76 42.1308 534.425 37.6507L534.424 37.6503C528.104 33.1697 519.978 30.5066 511.227 30.5066ZM474.62 55.5415C477.936 40.4296 493.358 29.5508 511.227 29.5508C520.17 29.5508 528.491 32.2718 534.979 36.8709C541.483 41.4707 546.16 47.9717 547.817 55.5257L547.818 55.5259L548.935 60.6298H473.502L474.62 55.5415C474.62 55.5415 474.62 55.5415 474.62 55.5415Z" fill="#9A3B82"/>
<path d="M646.266 313.848H638.729V361.318H646.266V313.848Z" fill="#66B0F0"/>
<path d="M783.141 361.318H740.232C738.683 361.318 737.485 359.98 737.676 358.451L743.649 308.16C743.809 306.87 744.911 305.898 746.204 305.898H789.114C790.663 305.898 791.861 307.237 791.669 308.766L785.696 359.056C785.537 360.346 784.435 361.318 783.141 361.318Z" fill="#9A3B82"/>
<path d="M759.762 361.318H725.875C723.799 361.318 722.186 359.502 722.426 357.447L726.77 320.824C726.977 319.088 728.462 317.766 730.219 317.766H764.92L759.762 361.318Z" fill="white"/>
<path fill-rule="evenodd" clip-rule="evenodd" d="M727.245 320.882C727.245 320.882 727.245 320.882 727.245 320.882L722.901 357.503C722.901 357.503 722.901 357.503 722.901 357.504C722.695 359.276 724.087 360.841 725.875 360.841H759.336L764.381 318.245H730.219C728.706 318.245 727.424 319.385 727.245 320.882ZM726.294 320.769C726.53 318.793 728.218 317.289 730.219 317.289H765.459L760.188 361.797H725.875C723.511 361.797 721.677 359.73 721.95 357.393L721.95 357.392L726.294 320.769Z" fill="#FFCF2D"/>
<path d="M763.563 361.318H731.225C729.149 361.318 727.536 359.502 727.776 357.447L732.119 320.824C732.327 319.088 733.812 317.766 735.569 317.766H768.322C769.36 317.766 770.174 318.674 770.047 319.709L765.288 359.772C765.192 360.665 764.441 361.318 763.563 361.318Z" fill="white"/>
<path fill-rule="evenodd" clip-rule="evenodd" d="M732.595 320.882C732.595 320.882 732.595 320.882 732.595 320.882L728.251 357.503C728.251 357.503 728.251 357.503 728.251 357.504C728.045 359.276 729.437 360.841 731.225 360.841H763.563C764.2 360.841 764.742 360.368 764.811 359.723L764.811 359.72L769.571 319.654L769.571 319.652C769.663 318.904 769.074 318.245 768.322 318.245H735.568C734.055 318.245 732.774 319.385 732.595 320.882ZM731.643 320.769C731.879 318.793 733.568 317.289 735.568 317.289H768.322C769.645 317.289 770.685 318.446 770.522 319.768C770.522 319.768 770.522 319.768 770.522 319.769L765.764 359.825C765.764 359.826 765.764 359.826 765.763 359.827C765.64 360.965 764.681 361.797 763.563 361.797H731.225C728.861 361.797 727.027 359.73 727.299 357.393L727.299 357.392L731.643 320.769Z" fill="#FFCF2D"/>
<path fill-rule="evenodd" clip-rule="evenodd" d="M646.268 320.506H660.305V361.796H646.268V320.506ZM647.226 321.462V360.84H659.347V321.462H647.226Z" fill="#9A3B82"/>
<path fill-rule="evenodd" clip-rule="evenodd" d="M654.795 320.506H674.166V361.796H654.795V320.506ZM655.753 321.462V360.84H673.208V321.462H655.753Z" fill="#9A3B82"/>
<path fill-rule="evenodd" clip-rule="evenodd" d="M671.224 316.078H677.358L696.718 361.797H690.584L671.224 316.078ZM672.669 317.034L691.219 360.841H695.273L676.723 317.034H672.669Z" fill="#9A3B82"/>
<path fill-rule="evenodd" clip-rule="evenodd" d="M679.172 322.879H689.701L706.432 361.795H695.904L679.172 322.879ZM680.626 323.835L696.536 360.84H704.979L689.069 323.835H680.626Z" fill="#9A3B82"/>
<path fill-rule="evenodd" clip-rule="evenodd" d="M624.581 320.506H638.729V361.796H624.581V320.506ZM625.539 321.462V360.84H637.771V321.462H625.539Z" fill="#9A3B82"/>
<path fill-rule="evenodd" clip-rule="evenodd" d="M624.581 289.588H686.893V298.413H624.581V289.588ZM625.539 290.544V297.457H685.935V290.544H625.539Z" fill="#9A3B82"/>
<path d="M702.782 284.045H625.059V290.385H702.782V284.045Z" fill="#FE5244"/>
<path d="M677.519 274.9H625.059V283.885H677.519V274.9Z" fill="#FFCF2D"/>
<path fill-rule="evenodd" clip-rule="evenodd" d="M624.581 267.557H686.893V275.219H624.581V267.557ZM625.539 268.512V274.263H685.935V268.512H625.539Z" fill="#9A3B82"/>
<path d="M792.275 250.352L792.227 250.623L784.977 297.934H717.713L724.963 250.623L725.059 249.954C726.209 247.628 733.236 245.828 741.747 245.828C751.058 245.828 758.595 247.979 758.595 250.623C758.595 247.979 766.133 245.828 775.443 245.828C784.434 245.844 791.764 247.835 792.275 250.352Z" fill="white"/>
<path fill-rule="evenodd" clip-rule="evenodd" d="M725.522 250.102L725.438 250.692L718.272 297.456H784.565L791.754 250.545L791.786 250.367C791.667 249.957 791.259 249.483 790.446 248.994C789.599 248.485 788.401 248.014 786.914 247.613C783.944 246.812 779.907 246.313 775.443 246.305C770.819 246.305 766.654 246.84 763.659 247.693C762.159 248.12 760.98 248.62 760.186 249.154C759.376 249.699 759.074 250.204 759.074 250.622H758.116C758.116 250.204 757.814 249.699 757.004 249.154C756.211 248.62 755.032 248.12 753.531 247.693C750.537 246.84 746.371 246.305 741.748 246.305C737.522 246.305 733.678 246.753 730.759 247.482C729.299 247.847 728.086 248.279 727.177 248.751C726.296 249.209 725.761 249.675 725.522 250.102ZM758.595 249.315C758.327 248.963 757.962 248.645 757.54 248.361C756.629 247.748 755.342 247.215 753.794 246.774C750.692 245.89 746.434 245.35 741.748 245.35C737.462 245.35 733.537 245.802 730.526 246.555C729.022 246.931 727.732 247.385 726.734 247.904C725.75 248.415 724.985 249.023 724.63 249.742L724.596 249.81L724.489 250.555L717.156 298.412H785.388L792.7 250.7L792.762 250.345L792.744 250.257C792.576 249.426 791.874 248.737 790.941 248.176C789.989 247.603 788.697 247.104 787.164 246.69C784.093 245.862 779.97 245.358 775.444 245.35H775.443C770.756 245.35 766.498 245.89 763.396 246.774C761.849 247.215 760.562 247.748 759.651 248.361C759.229 248.645 758.864 248.963 758.595 249.315Z" fill="#FFCF2D"/>
<path fill-rule="evenodd" clip-rule="evenodd" d="M759.084 250.71L751.898 298.021L750.95 297.878L758.136 250.566L759.084 250.71Z" fill="#FFCF2D"/>
<path d="M751.425 297.949C751.425 295.305 743.887 293.154 734.577 293.154C725.267 293.154 717.729 295.305 717.729 297.949H751.425Z" fill="#FFCF2D"/>
<path d="M785.121 297.949C785.121 295.305 777.584 293.154 768.273 293.154C758.963 293.154 751.426 295.305 751.426 297.949H785.121Z" fill="#FFCF2D"/>
<path fill-rule="evenodd" clip-rule="evenodd" d="M790.177 247.793C790.439 247.835 790.617 248.079 790.575 248.34L783.296 293.989L782.743 293.776C779.807 292.645 774.146 291.834 768.369 292.04C763.745 292.206 759.599 292.886 756.636 293.843C755.151 294.322 753.99 294.862 753.217 295.423C752.427 295.996 752.143 296.511 752.159 296.929C752.168 297.193 751.961 297.415 751.697 297.424C751.433 297.434 751.211 297.227 751.201 296.964C751.168 296.06 751.781 295.283 752.653 294.65C753.542 294.006 754.81 293.428 756.341 292.933C759.41 291.943 763.648 291.253 768.335 291.085C773.851 290.888 779.328 291.601 782.534 292.685L789.629 248.19C789.671 247.929 789.916 247.752 790.177 247.793Z" fill="#FFCF2D"/>
<path d="M786.91 234.566H726.514V221.153C726.514 219.831 727.584 218.764 728.91 218.764H784.531C785.856 218.764 786.926 219.831 786.926 221.153V234.566H786.91Z" fill="white"/>
<path fill-rule="evenodd" clip-rule="evenodd" d="M728.909 219.241C727.848 219.241 726.992 220.094 726.992 221.153V234.087H786.446V221.153C786.446 220.094 785.591 219.241 784.53 219.241H728.909ZM726.034 221.153C726.034 219.566 727.319 218.285 728.909 218.285H784.53C786.12 218.285 787.405 219.566 787.405 221.153V235.043H726.034V221.153Z" fill="#9A3B82"/>
<path d="M791.732 218.126H739.688C738.874 218.126 738.235 217.473 738.235 216.677V211.34C738.235 210.528 738.89 209.891 739.688 209.891H791.732C792.547 209.891 793.186 210.544 793.186 211.34V216.677C793.186 217.473 792.531 218.126 791.732 218.126Z" fill="#FFCF2D"/>
<path d="M793.761 204.889H732.023V209.891H793.761V204.889Z" fill="#FE5244"/>
<path d="M792.642 204.889H745.516C744.893 204.889 744.398 204.38 744.398 203.774V199.744C744.398 199.123 744.909 198.629 745.516 198.629H792.642C793.265 198.629 793.76 199.139 793.76 199.744V203.774C793.76 204.38 793.265 204.889 792.642 204.889Z" fill="white"/>
<path fill-rule="evenodd" clip-rule="evenodd" d="M745.517 199.106C745.171 199.106 744.879 199.39 744.879 199.743V203.774C744.879 204.119 745.164 204.411 745.517 204.411H792.643C792.997 204.411 793.282 204.119 793.282 203.774V199.743C793.282 199.398 792.997 199.106 792.643 199.106H745.517ZM743.92 199.743C743.92 198.854 744.65 198.15 745.517 198.15H792.643C793.535 198.15 794.24 198.879 794.24 199.743V203.774C794.24 204.638 793.535 205.367 792.643 205.367H745.517C744.626 205.367 743.92 204.638 743.92 203.774V199.743Z" fill="#9A3B82"/>
<path fill-rule="evenodd" clip-rule="evenodd" d="M644.397 184.881H663.481V235.044H644.397V184.881ZM645.356 185.837V234.088H662.523V185.837H645.356Z" fill="#9A3B82"/>
<path d="M644.878 185.359H637.564V234.566H644.878V185.359Z" fill="white"/>
<path fill-rule="evenodd" clip-rule="evenodd" d="M637.085 184.881H645.357V235.044H637.085V184.881ZM638.043 185.837V234.088H644.399V185.837H638.043Z" fill="#9A3B82"/>
<path d="M637.563 185.359H625.267V234.566H637.563V185.359Z" fill="white"/>
<path fill-rule="evenodd" clip-rule="evenodd" d="M624.788 184.881H638.043V235.044H624.788V184.881ZM625.746 185.837V234.088H637.084V185.837H625.746Z" fill="#9A3B82"/>
<path fill-rule="evenodd" clip-rule="evenodd" d="M664.919 193.77H681.767V235.06H664.919V193.77ZM665.878 194.725V234.104H680.809V194.725H665.878Z" fill="#9A3B82"/>
<path d="M666.548 234.565H660.288C659.681 234.565 659.17 234.071 659.17 233.45V195.33C659.17 194.725 659.665 194.215 660.288 194.215H666.548C667.155 194.215 667.666 194.709 667.666 195.33V233.45C667.65 234.071 667.155 234.565 666.548 234.565Z" fill="white"/>
<path fill-rule="evenodd" clip-rule="evenodd" d="M660.289 194.694C659.935 194.694 659.65 194.985 659.65 195.331V233.451C659.65 233.804 659.942 234.088 660.289 234.088H666.549C666.883 234.088 667.175 233.815 667.188 233.444V195.331C667.188 194.978 666.896 194.694 666.549 194.694H660.289ZM658.692 195.331C658.692 194.466 659.397 193.738 660.289 193.738H666.549C667.416 193.738 668.146 194.442 668.146 195.331V233.457L668.146 233.463C668.123 234.332 667.427 235.044 666.549 235.044H660.289C659.422 235.044 658.692 234.341 658.692 233.451V195.331Z" fill="#9A3B82"/>
<path d="M681.288 194.248V216.359L672.681 194.248H681.288Z" fill="#9A3B82"/>
<path d="M718.081 234.566H692.658C692.099 234.566 691.588 234.216 691.396 233.706L674.884 191.301C674.532 190.409 675.187 189.453 676.145 189.453H701.569C702.128 189.453 702.639 189.804 702.83 190.313L719.343 232.718C719.694 233.61 719.039 234.566 718.081 234.566Z" fill="white"/>
<path fill-rule="evenodd" clip-rule="evenodd" d="M676.146 189.93C675.525 189.93 675.102 190.547 675.33 191.126L675.331 191.127L691.844 233.535L691.845 233.538C691.965 233.857 692.295 234.088 692.658 234.088H718.082C718.702 234.088 719.125 233.471 718.897 232.892L702.383 190.483L702.382 190.48C702.262 190.161 701.933 189.93 701.569 189.93H676.146ZM674.438 191.474C673.964 190.269 674.851 188.975 676.146 188.975H701.569C702.322 188.975 703.014 189.443 703.278 190.142C703.279 190.143 703.279 190.144 703.279 190.145L719.789 232.543C719.789 232.543 719.789 232.543 719.789 232.543C720.264 233.749 719.377 235.043 718.082 235.043H692.658C691.905 235.043 691.213 234.575 690.949 233.876C690.949 233.875 690.948 233.874 690.948 233.873L674.438 191.475C674.438 191.475 674.438 191.474 674.438 191.474Z" fill="#FFCF2D"/>
<path d="M722.233 234.566H696.809C696.251 234.566 695.74 234.216 695.548 233.706L679.036 191.301C678.684 190.409 679.339 189.453 680.297 189.453H705.72C706.279 189.453 706.79 189.804 706.982 190.313L723.494 232.718C723.846 233.61 723.191 234.566 722.233 234.566Z" fill="white"/>
<path fill-rule="evenodd" clip-rule="evenodd" d="M680.298 189.93C679.677 189.93 679.254 190.547 679.482 191.126L679.483 191.127L695.996 233.535L695.997 233.538C696.117 233.857 696.446 234.088 696.81 234.088H722.233C722.854 234.088 723.277 233.471 723.049 232.892L706.535 190.483L706.534 190.48C706.414 190.161 706.085 189.93 705.721 189.93H680.298ZM678.59 191.474C678.116 190.269 679.002 188.975 680.298 188.975H705.721C706.474 188.975 707.166 189.443 707.43 190.142C707.43 190.143 707.431 190.144 707.431 190.145L723.941 232.543C723.941 232.543 723.941 232.543 723.941 232.543C724.415 233.749 723.529 235.043 722.233 235.043H696.81C696.057 235.043 695.365 234.575 695.101 233.876C695.101 233.875 695.1 233.874 695.1 233.873L678.59 191.475C678.59 191.475 678.59 191.474 678.59 191.474Z" fill="#FFCF2D"/>
<path fill-rule="evenodd" clip-rule="evenodd" d="M752.12 107.332L767.476 160.758L767.013 160.888C764.592 161.569 762.025 161.942 759.393 161.942C744.006 161.942 731.542 149.509 731.542 134.16C731.542 121.501 740.041 110.803 751.659 107.465L752.12 107.332ZM751.465 108.52C740.483 111.891 732.501 122.105 732.501 134.16C732.501 148.982 744.535 160.986 759.393 160.986C761.767 160.986 764.087 160.672 766.288 160.094L751.465 108.52Z" fill="#FFCF2D"/>
<path fill-rule="evenodd" clip-rule="evenodd" d="M758.916 171.196V161.463H759.874V171.196H758.916Z" fill="#FFCF2D"/>
<path d="M759.393 157.289C772.199 157.289 782.58 146.934 782.58 134.159C782.58 121.385 772.199 111.029 759.393 111.029C746.587 111.029 736.205 121.385 736.205 134.159C736.205 146.934 746.587 157.289 759.393 157.289Z" fill="white"/>
<path fill-rule="evenodd" clip-rule="evenodd" d="M759.394 111.509C746.853 111.509 736.686 121.65 736.686 134.161C736.686 146.671 746.853 156.813 759.394 156.813C771.936 156.813 782.103 146.671 782.103 134.161C782.103 121.65 771.936 111.509 759.394 111.509ZM735.728 134.161C735.728 121.122 746.323 110.553 759.394 110.553C772.465 110.553 783.061 121.122 783.061 134.161C783.061 147.199 772.465 157.769 759.394 157.769C746.323 157.769 735.728 147.199 735.728 134.161Z" fill="#3FB1B5"/>
<path d="M769.086 171.133H749.779L759.361 166.338L769.086 171.133Z" fill="white"/>
<path fill-rule="evenodd" clip-rule="evenodd" d="M759.359 165.805L771.137 171.611H747.756L759.359 165.805ZM759.363 166.872L751.803 170.656H767.036L759.363 166.872Z" fill="#FFCF2D"/>
<path fill-rule="evenodd" clip-rule="evenodd" d="M624.581 170.719H794.239V453.998H784.546V432.971C784.546 428.663 781.04 425.165 776.721 425.165H642.003C637.685 425.165 634.178 428.663 634.178 432.971V453.998H624.581V170.719ZM625.539 171.675V453.042H633.22V432.971C633.22 428.135 637.155 424.209 642.003 424.209H776.721C781.569 424.209 785.504 428.135 785.504 432.971V453.042H793.281V171.675H625.539Z" fill="#9A3B82"/>
<path fill-rule="evenodd" clip-rule="evenodd" d="M636.861 369.124C635.275 369.124 634.003 370.406 634.003 371.975V413.536C634.003 415.118 635.288 416.387 636.861 416.387H781.64C783.213 416.387 784.498 415.118 784.498 413.536V371.975C784.498 370.393 783.213 369.124 781.64 369.124H636.861ZM633.044 371.975C633.044 369.881 634.743 368.168 636.861 368.168H781.64C783.739 368.168 785.457 369.862 785.457 371.975V413.536C785.457 415.649 783.739 417.343 781.64 417.343H636.861C634.762 417.343 633.044 415.649 633.044 413.536V371.975Z" fill="#3FB1B5"/>
<path d="M716.883 132.424V171.197H703.277L716.883 132.424Z" fill="#9A3B82"/>
<path d="M716.883 132.424L716.787 132.711L703.357 171.197H640.917L654.347 132.711L654.778 131.484C656.79 128.601 662.363 126.498 669.007 126.387C669.118 126.387 669.214 126.387 669.326 126.387C669.438 126.387 669.534 126.387 669.645 126.387C677.407 126.387 684.321 129.079 685.583 132.615C686.829 129.079 693.44 126.387 701.201 126.387C708.802 126.387 715.462 128.983 716.883 132.424Z" fill="white"/>
<path fill-rule="evenodd" clip-rule="evenodd" d="M669.004 125.908H669.647C673.578 125.908 677.308 126.589 680.227 127.729C682.649 128.675 684.598 129.97 685.579 131.526C686.534 129.974 688.41 128.678 690.771 127.731C693.615 126.589 697.27 125.908 701.202 125.908C705.053 125.908 708.678 126.565 711.534 127.669C714.363 128.762 716.54 130.336 717.327 132.241L717.395 132.406L717.242 132.864L703.699 171.674H640.244L653.895 132.553L654.349 131.264L654.386 131.211C655.472 129.655 657.472 128.363 659.993 127.446C662.525 126.526 665.632 125.965 669 125.908L669.004 125.908ZM669.012 126.864C665.738 126.919 662.739 127.465 660.321 128.344C657.922 129.217 656.146 130.398 655.209 131.705L654.8 132.868L641.592 170.719H703.017L716.334 132.559L716.336 132.553L716.371 132.447C715.678 130.971 713.849 129.588 711.188 128.56C708.458 127.505 704.952 126.864 701.202 126.864C697.373 126.864 693.842 127.529 691.129 128.618C688.389 129.717 686.589 131.203 686.036 132.773L685.587 134.048L685.133 132.775C684.575 131.21 682.702 129.722 679.878 128.619C677.085 127.529 673.476 126.864 669.647 126.864H669.012Z" fill="#FFCF2D"/>
<path fill-rule="evenodd" clip-rule="evenodd" d="M685.728 132.165C685.978 132.254 686.107 132.527 686.018 132.776L672.46 170.561C672.371 170.81 672.097 170.939 671.848 170.85C671.598 170.761 671.469 170.488 671.558 170.239L685.116 132.454C685.205 132.205 685.479 132.076 685.728 132.165Z" fill="#FFCF2D"/>
<path d="M671.977 170.719H640.917C642.066 167.135 648.518 164.379 656.279 164.379C664.072 164.379 670.827 167.135 671.977 170.719Z" fill="#FFCF2D"/>
<path d="M703.278 170.719H672.217C673.367 167.135 679.819 164.379 687.58 164.379C695.373 164.379 702.128 167.135 703.278 170.719Z" fill="#FFCF2D"/>
<path fill-rule="evenodd" clip-rule="evenodd" d="M701.121 379.175C700.126 379.175 699.332 379.978 699.332 380.959C699.332 381.223 699.118 381.437 698.853 381.437C698.589 381.437 698.374 381.223 698.374 380.959C698.374 379.454 699.592 378.219 701.121 378.219H718.064C719.572 378.219 720.811 379.434 720.811 380.959C720.811 381.223 720.597 381.437 720.332 381.437C720.067 381.437 719.853 381.223 719.853 380.959C719.853 379.966 719.048 379.175 718.064 379.175H701.121Z" fill="#9A3B82"/>
<path fill-rule="evenodd" clip-rule="evenodd" d="M624.581 297.951C624.581 297.687 624.795 297.473 625.06 297.473H793.76C794.025 297.473 794.239 297.687 794.239 297.951C794.239 298.215 794.025 298.428 793.76 298.428H625.06C624.795 298.428 624.581 298.215 624.581 297.951Z" fill="#9A3B82"/>
<path fill-rule="evenodd" clip-rule="evenodd" d="M624.581 234.566C624.581 234.302 624.795 234.088 625.06 234.088H793.76C794.025 234.088 794.239 234.302 794.239 234.566C794.239 234.83 794.025 235.044 793.76 235.044H625.06C624.795 235.044 624.581 234.83 624.581 234.566Z" fill="#9A3B82"/>
<path fill-rule="evenodd" clip-rule="evenodd" d="M624.581 361.32C624.581 361.056 624.795 360.842 625.06 360.842H793.76C794.025 360.842 794.239 361.056 794.239 361.32C794.239 361.584 794.025 361.798 793.76 361.798H625.06C624.795 361.798 624.581 361.584 624.581 361.32Z" fill="#9A3B82"/>
<path fill-rule="evenodd" clip-rule="evenodd" d="M645.978 111.55C646.228 111.638 646.359 111.91 646.272 112.159L625.735 170.719H793.42L814.068 111.844C814.156 111.595 814.429 111.463 814.679 111.55C814.928 111.638 815.06 111.91 814.973 112.159L794.212 171.354C794.145 171.546 793.964 171.674 793.76 171.674H625.06C624.904 171.674 624.759 171.599 624.669 171.473C624.579 171.347 624.556 171.185 624.607 171.039L645.368 111.844C645.455 111.595 645.728 111.463 645.978 111.55Z" fill="#9A3B82"/>
<path d="M453.834 432.941V450.273C453.834 452.073 455.288 453.523 457.092 453.523H500.529C500.529 453.523 500.785 445.478 494.173 443.232C482.947 439.425 477.709 432.941 477.709 432.941H453.834V432.941Z" fill="white"/>
<path fill-rule="evenodd" clip-rule="evenodd" d="M453.835 432.463H477.938L478.082 432.641L478.082 432.641L478.084 432.643C478.086 432.646 478.089 432.65 478.094 432.655C478.103 432.666 478.117 432.683 478.136 432.706C478.174 432.751 478.234 432.819 478.313 432.909C478.473 433.087 478.715 433.349 479.042 433.676C479.695 434.33 480.686 435.246 482.025 436.281C484.702 438.35 488.772 440.895 494.327 442.779L494.328 442.779C497.825 443.967 499.495 446.693 500.285 449.068C500.68 450.256 500.861 451.368 500.942 452.182C500.983 452.59 501 452.925 501.006 453.159C501.009 453.277 501.01 453.369 501.009 453.433C501.009 453.465 501.009 453.49 501.009 453.508C501.008 453.516 501.008 453.523 501.008 453.528L501.008 453.534L501.008 453.537C501.008 453.537 501.008 453.537 500.529 453.522L501.008 453.537L500.993 454H457.092C455.023 454 453.355 452.336 453.355 450.272V432.941H453.835V432.463ZM454.314 433.419V450.272C454.314 451.808 455.552 453.044 457.092 453.044H500.044C500.036 452.843 500.02 452.583 499.989 452.278C499.912 451.513 499.743 450.474 499.376 449.369C498.641 447.161 497.133 444.742 494.019 443.684C488.348 441.761 484.186 439.16 481.438 437.036C480.064 435.974 479.043 435.031 478.363 434.351C478.023 434.01 477.769 433.736 477.598 433.545C477.556 433.498 477.519 433.455 477.487 433.419H454.314Z" fill="#FE5244"/>
<path fill-rule="evenodd" clip-rule="evenodd" d="M483.041 434.707C483.485 434.764 483.949 434.922 484.308 435.28C484.65 435.621 484.846 436.014 484.89 436.442C484.933 436.862 484.824 437.272 484.638 437.649C484.271 438.39 483.554 439.104 482.765 439.725C481.181 440.97 479.085 442.007 478.125 442.275L477.868 441.354C478.681 441.128 480.665 440.158 482.171 438.974C482.927 438.38 483.508 437.773 483.779 437.226C483.911 436.958 483.956 436.731 483.937 436.539C483.918 436.355 483.835 436.16 483.63 435.956C483.47 435.796 483.233 435.695 482.919 435.655C482.604 435.615 482.247 435.64 481.897 435.7C481.549 435.76 481.229 435.85 480.993 435.927C480.876 435.965 480.782 435.999 480.717 436.023C480.685 436.035 480.661 436.044 480.645 436.051C480.637 436.054 480.631 436.056 480.628 436.057L480.624 436.059C480.624 436.059 480.624 436.059 480.44 435.618C480.256 435.177 480.256 435.177 480.256 435.177L480.257 435.176L480.259 435.175L480.266 435.172C480.272 435.17 480.281 435.166 480.291 435.162C480.312 435.154 480.342 435.142 480.38 435.128C480.456 435.099 480.565 435.061 480.697 435.018C480.961 434.932 481.328 434.828 481.734 434.759C482.136 434.689 482.597 434.65 483.041 434.707Z" fill="#FE5244"/>
<path fill-rule="evenodd" clip-rule="evenodd" d="M490.338 437.474C489.174 436.538 487.774 437.029 486.84 437.568C486.351 437.851 485.928 438.179 485.63 438.433C485.48 438.561 485.36 438.673 485.276 438.752C485.234 438.792 485.202 438.825 485.179 438.847C485.167 438.859 485.159 438.868 485.152 438.874L485.145 438.882L485.142 438.884L485.141 438.885C485.141 438.885 485.141 438.886 485.487 439.217C485.832 439.548 485.832 439.548 485.832 439.548L485.833 439.547L485.837 439.543C485.841 439.539 485.848 439.532 485.857 439.523C485.875 439.505 485.902 439.478 485.939 439.443C486.012 439.373 486.119 439.274 486.253 439.159C486.524 438.928 486.898 438.639 487.32 438.396C488.206 437.884 489.081 437.69 489.737 438.219L489.738 438.22C489.966 438.401 490.063 438.58 490.097 438.748C490.133 438.923 490.11 439.139 490.002 439.404C489.781 439.948 489.253 440.576 488.542 441.205C487.843 441.824 487.011 442.405 486.244 442.862C485.468 443.324 484.796 443.636 484.416 443.742L484.673 444.663C485.179 444.522 485.938 444.157 486.735 443.683C487.542 443.202 488.425 442.587 489.178 441.92C489.921 441.262 490.584 440.515 490.89 439.763C491.046 439.38 491.12 438.969 491.036 438.558C490.951 438.14 490.713 437.774 490.338 437.474Z" fill="#FE5244"/>
<path d="M479.05 434.343L453.834 442.165V432.941H477.725C477.725 432.941 478.156 433.483 479.05 434.343Z" fill="#FE5244"/>
<path d="M508.289 432.941V450.273C508.289 452.073 509.742 453.523 511.547 453.523H554.984C554.984 453.523 555.239 445.478 548.628 443.232C537.401 439.425 532.163 432.941 532.163 432.941H508.289V432.941Z" fill="white"/>
<path fill-rule="evenodd" clip-rule="evenodd" d="M508.29 432.463H532.393L532.537 432.641L532.537 432.641L532.539 432.643C532.541 432.646 532.544 432.65 532.549 432.655C532.558 432.666 532.572 432.683 532.591 432.706C532.63 432.751 532.689 432.819 532.768 432.909C532.928 433.087 533.17 433.349 533.497 433.676C534.151 434.33 535.141 435.246 536.48 436.281C539.157 438.35 543.227 440.895 548.783 442.779L548.783 442.779C552.28 443.967 553.95 446.693 554.74 449.068C555.135 450.256 555.316 451.368 555.397 452.182C555.438 452.59 555.455 452.925 555.461 453.159C555.464 453.277 555.465 453.369 555.464 453.433C555.464 453.465 555.464 453.49 555.464 453.508C555.464 453.516 555.463 453.523 555.463 453.528L555.463 453.534L555.463 453.537C555.463 453.537 555.463 453.537 554.984 453.522L555.463 453.537L555.448 454H511.547C509.478 454 507.811 452.336 507.811 450.272V432.941H508.29V432.463ZM508.769 433.419V450.272C508.769 451.808 510.007 453.044 511.547 453.044H554.499C554.491 452.843 554.475 452.583 554.444 452.278C554.367 451.513 554.198 450.474 553.831 449.369C553.096 447.161 551.588 444.742 548.474 443.684C542.803 441.761 538.641 439.16 535.893 437.036C534.519 435.974 533.498 435.031 532.818 434.351C532.479 434.01 532.224 433.736 532.053 433.545C532.011 433.498 531.974 433.455 531.942 433.419H508.769Z" fill="#FE5244"/>
<path fill-rule="evenodd" clip-rule="evenodd" d="M537.496 434.707C537.94 434.764 538.404 434.922 538.763 435.28C539.105 435.621 539.301 436.014 539.345 436.442C539.388 436.862 539.279 437.272 539.093 437.649C538.726 438.39 538.009 439.104 537.22 439.725C535.636 440.97 533.54 442.007 532.58 442.275L532.323 441.354C533.136 441.128 535.12 440.158 536.627 438.974C537.382 438.38 537.963 437.773 538.234 437.226C538.366 436.958 538.411 436.731 538.392 436.539C538.373 436.355 538.291 436.16 538.085 435.956C537.925 435.796 537.689 435.695 537.374 435.655C537.059 435.615 536.702 435.64 536.352 435.7C536.005 435.76 535.684 435.85 535.448 435.927C535.331 435.965 535.237 435.999 535.173 436.023C535.14 436.035 535.116 436.044 535.1 436.051C535.092 436.054 535.086 436.056 535.083 436.057L535.079 436.059C535.079 436.059 535.079 436.059 534.895 435.618C534.711 435.177 534.711 435.177 534.711 435.177L534.712 435.176L534.714 435.175L534.721 435.172C534.727 435.17 534.736 435.166 534.746 435.162C534.767 435.154 534.797 435.142 534.836 435.128C534.912 435.099 535.02 435.061 535.152 435.018C535.417 434.932 535.784 434.828 536.189 434.759C536.591 434.689 537.052 434.65 537.496 434.707Z" fill="#FE5244"/>
<path fill-rule="evenodd" clip-rule="evenodd" d="M544.793 437.474C543.629 436.538 542.229 437.029 541.295 437.568C540.806 437.851 540.383 438.179 540.085 438.433C539.935 438.561 539.815 438.673 539.731 438.752C539.689 438.792 539.657 438.825 539.634 438.847C539.622 438.859 539.614 438.868 539.607 438.874L539.6 438.882L539.597 438.884L539.596 438.885C539.596 438.885 539.596 438.886 539.942 439.217C540.287 439.548 540.287 439.548 540.287 439.548L540.288 439.547L540.292 439.543C540.296 439.539 540.303 439.532 540.312 439.523C540.33 439.505 540.357 439.478 540.394 439.443C540.467 439.373 540.574 439.274 540.708 439.159C540.979 438.928 541.353 438.639 541.775 438.396C542.661 437.884 543.536 437.69 544.192 438.219L544.193 438.22C544.421 438.401 544.518 438.58 544.552 438.748C544.588 438.923 544.565 439.139 544.457 439.404C544.236 439.948 543.708 440.576 542.997 441.205C542.298 441.824 541.466 442.405 540.699 442.862C539.923 443.324 539.251 443.636 538.871 443.742L539.128 444.663C539.634 444.522 540.393 444.157 541.19 443.683C541.997 443.202 542.88 442.587 543.633 441.92C544.376 441.262 545.039 440.515 545.345 439.763C545.501 439.38 545.575 438.969 545.491 438.558C545.406 438.14 545.168 437.774 544.793 437.474Z" fill="#FE5244"/>
<path d="M533.505 434.343L508.289 442.165V432.941H532.179C532.179 432.941 532.611 433.483 533.505 434.343Z" fill="#FE5244"/>
<path d="M465.576 260.422L449.846 424.69H482.743L499.271 345.089L506.026 362.054V424.69H540.28V354.455L522.011 260.422H465.576Z" fill="#3FB1B5"/>
<path fill-rule="evenodd" clip-rule="evenodd" d="M466.936 424.632L482.234 299.822L483.185 299.938L467.887 424.748L466.936 424.632Z" fill="#9A3B82"/>
<path fill-rule="evenodd" clip-rule="evenodd" d="M501.556 268.271L523.033 354.397V424.69H522.075V354.514L500.626 268.502L501.556 268.271Z" fill="#9A3B82"/>
<path fill-rule="evenodd" clip-rule="evenodd" d="M485.495 302.495C485.495 302.495 485.495 302.495 485.495 302.495L505.999 361.897L505.093 362.208L484.589 302.806C483.953 300.961 482.204 299.719 480.235 299.719V298.764C482.61 298.764 484.725 300.262 485.495 302.495Z" fill="white"/>
<path d="M462.973 287.582L465.576 260.422H522.012L523.625 268.769L462.973 287.582Z" fill="#9A3B82"/>
<path d="M540.344 432.941H505.898C504.605 432.941 503.551 431.89 503.551 430.599V427.031C503.551 425.741 504.605 424.689 505.898 424.689H540.344C541.638 424.689 542.692 425.741 542.692 427.031V430.599C542.676 431.89 541.638 432.941 540.344 432.941Z" fill="#9A3B82"/>
<path d="M483.333 432.941H448.887C447.593 432.941 446.539 431.89 446.539 430.599V427.031C446.539 425.741 447.593 424.689 448.887 424.689H483.333C484.626 424.689 485.68 425.741 485.68 427.031V430.599C485.664 431.89 484.626 432.941 483.333 432.941Z" fill="#9A3B82"/>
<path d="M575.266 265.234L586.062 305.52L532.245 319.873L521.433 279.555C521.098 278.296 520.284 277.309 519.246 276.703C518.208 276.098 516.93 275.891 515.668 276.225C513.161 276.894 511.66 279.475 512.331 281.976L523.142 322.294L521.96 322.613L511.165 282.327C510.303 279.125 512.155 275.843 515.317 274.887C515.381 274.871 515.445 274.855 515.509 274.84L567.761 260.901C571.035 260.041 574.388 261.984 575.266 265.234Z" fill="#66B0F0"/>
<path d="M522.631 279.284L533.426 319.57L532.245 319.889L521.433 279.571C521.098 278.312 520.284 277.325 519.246 276.719C518.208 276.114 516.93 275.907 515.668 276.241C513.161 276.911 511.66 279.491 512.331 281.992L523.142 322.31L521.96 322.629L511.165 282.343C510.303 279.141 512.155 275.859 515.317 274.903C518.527 274.155 521.769 276.082 522.631 279.284Z" fill="#9A3B82"/>
<path d="M521.434 279.555L531.575 317.404L522.472 319.826L512.331 281.977C511.661 279.476 513.146 276.895 515.669 276.226C516.931 275.891 518.208 276.098 519.246 276.704C520.284 277.309 521.099 278.297 521.434 279.555Z" fill="white"/>
<path d="M575.426 286.58L550.945 294.99L531.622 260.423H456.726C443.998 260.423 434.48 248.746 437.083 236.321L444.876 198.982C447.32 187.289 457.652 178.91 469.613 178.91H520.827C533.235 178.91 543.807 187.895 545.771 200.113L553.484 236.464L575.426 286.58Z" fill="#FFCF2D"/>
<path fill-rule="evenodd" clip-rule="evenodd" d="M445.346 199.079C445.346 199.079 445.346 199.079 445.346 199.079L437.553 236.418L437.553 236.418C435.012 248.546 444.302 259.944 456.726 259.944H531.904L551.169 294.408L574.78 286.296L553.026 236.61L545.3 200.199L545.298 200.188C543.371 188.202 533 179.387 520.827 179.387H469.613C457.879 179.387 447.743 187.608 445.346 199.079ZM444.408 198.884C446.897 186.97 457.425 178.432 469.613 178.432H520.827C533.467 178.432 544.236 187.581 546.243 200.025L553.943 236.317L576.073 286.862L550.722 295.572L531.341 260.9H456.726C443.695 260.9 433.949 248.945 436.615 236.223L444.408 198.884Z" fill="white"/>
<path d="M452.734 260.023C443.919 258.255 437.371 250.768 436.701 241.942C437.371 241.481 438.122 241.082 438.92 240.796C444.717 238.661 451.345 242.165 453.756 248.617C455.241 252.663 454.73 256.901 452.734 260.023Z" fill="white"/>
<path d="M508.498 156.512V178.925H483.698L489.415 164.015L508.498 156.512Z" fill="#E57281"/>
<path d="M514.199 147.082C514.183 147.082 514.151 147.098 514.135 147.098L506.773 149.041C504.138 149.742 502.11 151.685 501.248 154.139H498.421C496.633 154.139 495.18 155.588 495.18 157.372V157.42C495.18 159.109 496.473 160.495 498.134 160.638C498.118 160.654 498.118 160.654 498.118 160.654C498.118 160.654 496.809 166.866 489.159 164.78C489.159 164.78 489.463 148.436 489.782 143.354C490.053 139.165 512.331 131.232 514.391 134.609C516.211 137.604 514.103 139.005 512.315 139.627C515.477 138.958 521.449 138.066 522.056 140.726C522.759 143.816 516.451 146.492 514.199 147.082Z" fill="#9A3B82"/>
<path d="M515.637 158.535H514.854L515.078 162.358C515.237 165.098 513.034 167.424 510.287 167.424H506.838C503.516 167.424 500.817 164.732 500.817 161.418V160.67H498.438C496.649 160.67 495.196 159.22 495.196 157.436V157.388C495.196 155.604 496.649 154.154 498.438 154.154H501.264C502.127 151.701 504.155 149.742 506.79 149.057L514.152 147.113L516.675 157.197C516.93 157.834 516.323 158.535 515.637 158.535Z" fill="#E57281"/>
<path fill-rule="evenodd" clip-rule="evenodd" d="M501.607 161.324C501.827 161.345 501.988 161.539 501.967 161.758C501.814 163.356 502.533 164.737 503.707 165.734C504.886 166.736 506.502 167.328 508.069 167.328C508.29 167.328 508.468 167.506 508.468 167.726C508.468 167.946 508.29 168.124 508.069 168.124C506.314 168.124 504.514 167.466 503.189 166.341C501.859 165.211 500.99 163.59 501.172 161.683C501.193 161.464 501.388 161.303 501.607 161.324Z" fill="#9A3B82"/>
<path fill-rule="evenodd" clip-rule="evenodd" d="M497.625 155.73C497.625 155.51 497.803 155.332 498.024 155.332C499.49 155.332 500.675 156.514 500.675 157.976C500.675 158.196 500.496 158.375 500.275 158.375C500.055 158.375 499.876 158.196 499.876 157.976C499.876 156.954 499.049 156.129 498.024 156.129C497.803 156.129 497.625 155.95 497.625 155.73Z" fill="#9A3B82"/>
<path d="M512.923 155.699C513.249 155.699 513.514 155.15 513.514 154.473C513.514 153.795 513.249 153.246 512.923 153.246C512.597 153.246 512.332 153.795 512.332 154.473C512.332 155.15 512.597 155.699 512.923 155.699Z" fill="#9A3B82"/>
<path fill-rule="evenodd" clip-rule="evenodd" d="M510.368 151.892L510.126 151.575C509.95 151.709 509.917 151.959 510.051 152.134C510.185 152.308 510.435 152.342 510.61 152.208L510.613 152.207C510.615 152.205 510.62 152.201 510.626 152.197C510.639 152.188 510.658 152.173 510.685 152.155C510.739 152.117 510.821 152.063 510.928 151.997C511.144 151.864 511.461 151.686 511.864 151.507C512.67 151.148 513.808 150.793 515.143 150.793C515.363 150.793 515.542 150.614 515.542 150.394C515.542 150.174 515.363 149.996 515.143 149.996C513.667 149.996 512.417 150.389 511.539 150.779C511.099 150.975 510.75 151.171 510.509 151.319C510.389 151.393 510.295 151.455 510.23 151.5C510.198 151.522 510.173 151.54 510.155 151.553C510.147 151.56 510.14 151.565 510.135 151.568L510.129 151.573L510.127 151.574L510.126 151.575L510.126 151.575C510.126 151.575 510.126 151.575 510.368 151.892Z" fill="#9A3B82"/>
<path d="M502.766 270.633C502.766 270.633 522.328 271.477 529.211 255.819L525.57 249.176L514.695 253.349L502.766 270.633Z" fill="white"/>
<path fill-rule="evenodd" clip-rule="evenodd" d="M525.789 248.58L529.745 255.796L529.65 256.011C526.133 264.013 519.376 267.786 513.547 269.556C510.631 270.441 507.937 270.83 505.971 270.997C504.987 271.081 504.185 271.11 503.626 271.117C503.347 271.121 503.129 271.12 502.979 271.117C502.905 271.116 502.847 271.115 502.808 271.113C502.788 271.113 502.773 271.112 502.762 271.112L502.75 271.111L502.746 271.111C502.745 271.111 502.745 271.111 502.766 270.634L502.745 271.111L501.88 271.074L514.385 252.957L525.789 248.58ZM503.674 270.161C504.209 270.152 504.967 270.123 505.889 270.045C507.807 269.881 510.432 269.502 513.268 268.641C518.888 266.935 525.286 263.351 528.677 255.841L525.351 249.772L515.005 253.743L503.674 270.161Z" fill="#FE5244"/>
<path d="M518.433 174.816C517.49 174.896 516.628 175.31 515.989 175.947C515.287 176.648 514.84 177.62 514.84 178.703V257.189C514.84 264.676 508.755 270.746 501.25 270.746H471.083C462.971 270.746 456.711 263.721 457.573 255.74V255.724L468.432 181.22C468.975 177.54 472.121 174.816 475.858 174.816H518.433V174.816Z" fill="#FE5244"/>
<path fill-rule="evenodd" clip-rule="evenodd" d="M468.906 181.289C468.906 181.289 468.906 181.289 468.906 181.289L458.052 255.758V255.765L458.049 255.79C457.217 263.49 463.257 270.267 471.083 270.267H501.249C508.49 270.267 514.36 264.412 514.36 257.189V178.703C514.36 177.485 514.863 176.394 515.65 175.609C515.762 175.498 515.879 175.392 516.002 175.294H475.858C472.36 175.294 469.415 177.843 468.906 181.289ZM518.432 174.816V174.338H475.858C471.882 174.338 468.535 177.237 467.958 181.15L457.094 255.689V255.714C456.217 263.965 462.693 271.223 471.083 271.223H501.249C509.019 271.223 515.318 264.94 515.318 257.189V178.703C515.318 177.754 515.709 176.902 516.328 176.285C516.888 175.726 517.645 175.362 518.473 175.292L518.432 174.816Z" fill="#FE5244"/>
<path d="M515.397 174.817C514.455 174.896 513.593 175.311 512.954 175.948C512.363 176.537 511.964 177.302 511.852 178.162C511.836 178.337 511.82 178.512 511.82 178.688L511.182 184.693L503.516 257.174C503.516 264.661 497.432 270.73 489.926 270.73H471.098C462.986 270.73 456.726 263.705 457.588 255.724V255.708L462.491 222.033L468.447 181.205C468.495 180.854 468.575 180.504 468.671 180.153C469.597 177.015 472.504 174.801 475.857 174.801H515.397V174.817Z" fill="white"/>
<path fill-rule="evenodd" clip-rule="evenodd" d="M469.129 180.283C469.037 180.62 468.963 180.947 468.919 181.268L468.919 181.271L462.962 222.101L458.065 255.742V255.749L458.062 255.775C457.23 263.474 463.27 270.251 471.096 270.251H489.924C497.165 270.251 503.034 264.396 503.034 257.173V257.148L510.702 184.642L510.702 184.642L511.339 178.661C511.34 178.473 511.357 178.289 511.372 178.127L511.373 178.109L511.374 178.1C511.501 177.129 511.951 176.269 512.613 175.609C512.73 175.492 512.855 175.381 512.985 175.278H475.855C472.717 175.278 469.997 177.349 469.129 180.283ZM468.209 180.018C469.194 176.678 472.287 174.322 475.855 174.322H515.874V175.255L515.435 175.292C514.608 175.362 513.851 175.726 513.29 176.285C512.772 176.802 512.425 177.468 512.326 178.214C512.31 178.389 512.297 178.54 512.297 178.687V178.712L511.655 184.743L511.655 184.743L503.993 257.198C503.979 264.938 497.685 271.207 489.924 271.207H471.096C462.705 271.207 456.23 263.949 457.106 255.698V255.673L462.014 221.963L467.97 181.139C467.97 181.139 467.97 181.138 467.97 181.137C468.022 180.76 468.107 180.389 468.206 180.027L468.207 180.022L468.209 180.018Z" fill="#FE5244"/>
<path d="M508.675 190.444L505.817 211.837C504.874 216.218 501.457 218.56 496.507 219.356L462.651 224.263L467.586 190.428H508.675V190.444Z" fill="#FFCF2D"/>
<path d="M514.184 174.817H513.338C511.805 174.801 510.463 175.884 510.16 177.397L505.177 209.464C504.235 213.845 500.355 216.983 495.867 216.983H464.711C460.942 216.983 458.132 213.51 458.946 209.83L464.95 182.622C465.957 178.066 470.013 174.817 474.692 174.817H514.184Z" fill="#FE5244"/>
<path fill-rule="evenodd" clip-rule="evenodd" d="M513.341 174.338H514.185V175.294H513.275C512.001 175.308 510.891 176.216 510.632 177.48L505.65 209.55L505.647 209.563C504.657 214.164 500.582 217.46 495.868 217.46H464.712C460.638 217.46 457.598 213.706 458.479 209.727L464.483 182.519C465.538 177.744 469.789 174.338 474.693 174.338H513.269C513.293 174.338 513.317 174.338 513.341 174.338ZM510.832 175.294H474.693C470.238 175.294 466.377 178.388 465.419 182.724C465.419 182.724 465.419 182.724 465.419 182.724L459.415 209.933C458.666 213.313 461.248 216.504 464.712 216.504H495.868C500.124 216.504 503.807 213.531 504.707 209.376L509.689 177.313L509.691 177.303C509.851 176.504 510.263 175.81 510.832 175.294Z" fill="#FE5244"/>
<path d="M488.505 225.902L496.442 177.492C496.602 176.52 497.448 175.787 498.438 175.787C499.684 175.787 500.642 176.902 500.434 178.145L492.498 226.555C492.338 227.527 491.492 228.26 490.502 228.26C489.256 228.26 488.298 227.145 488.505 225.902Z" fill="white"/>
<path fill-rule="evenodd" clip-rule="evenodd" d="M496.916 177.57C496.916 177.57 496.916 177.57 496.916 177.57L488.979 225.981L488.979 225.982C488.82 226.932 489.552 227.783 490.503 227.783C491.253 227.783 491.904 227.225 492.026 226.479C492.026 226.479 492.026 226.479 492.026 226.479L499.963 178.069L499.963 178.067C500.122 177.117 499.39 176.266 498.44 176.266C497.689 176.266 497.039 176.825 496.916 177.57ZM495.971 177.416C496.167 176.218 497.21 175.311 498.44 175.311C499.98 175.311 501.164 176.689 500.908 178.224C500.908 178.224 500.908 178.224 500.908 178.225L492.972 226.634C492.775 227.832 491.732 228.739 490.503 228.739C488.962 228.739 487.778 227.36 488.034 225.826C488.034 225.825 488.034 225.825 488.034 225.825L495.971 177.416L495.971 177.416Z" fill="#FE5244"/>
<path d="M470.763 225.902L478.7 177.492C478.859 176.52 479.706 175.787 480.696 175.787C481.941 175.787 482.9 176.902 482.692 178.145L474.755 226.555C474.595 227.527 473.749 228.26 472.759 228.26C471.513 228.26 470.555 227.145 470.763 225.902Z" fill="white"/>
<path fill-rule="evenodd" clip-rule="evenodd" d="M479.173 177.57C479.173 177.57 479.173 177.57 479.173 177.57L471.236 225.981L471.236 225.982C471.077 226.932 471.809 227.783 472.76 227.783C473.51 227.783 474.16 227.225 474.283 226.479C474.283 226.479 474.283 226.479 474.283 226.479L482.22 178.069L482.22 178.067C482.379 177.117 481.647 176.266 480.697 176.266C479.946 176.266 479.296 176.825 479.173 177.57ZM478.228 177.416C478.424 176.218 479.467 175.311 480.697 175.311C482.237 175.311 483.421 176.689 483.165 178.224C483.165 178.224 483.165 178.224 483.165 178.225L475.229 226.634C475.032 227.832 473.989 228.739 472.76 228.739C471.219 228.739 470.035 227.36 470.291 225.826C470.291 225.825 470.291 225.825 470.291 225.825L478.228 177.416L478.228 177.416Z" fill="#FE5244"/>
<path d="M522.664 178.942L514.855 178.974V178.703C514.855 177.62 515.286 176.648 516.005 175.947C516.644 175.31 517.49 174.896 518.448 174.816H519.087C521.051 174.976 522.6 176.632 522.664 178.942Z" fill="white"/>
<path fill-rule="evenodd" clip-rule="evenodd" d="M518.428 174.338H519.106L519.126 174.339C521.363 174.521 523.073 176.405 523.143 178.928L523.156 179.418L514.376 179.453V178.703C514.376 177.49 514.859 176.397 515.668 175.607C516.384 174.894 517.334 174.429 518.408 174.34L518.428 174.338ZM518.469 175.294C517.635 175.368 516.901 175.729 516.344 176.285L516.342 176.287L516.34 176.289C515.759 176.855 515.391 177.626 515.34 178.494L522.146 178.466C521.905 176.646 520.615 175.428 519.067 175.294H518.469Z" fill="#FE5244"/>
<path d="M572.502 287.584L579.082 304.517C580.136 307.241 578.603 310.268 575.792 311.048L561.34 314.999C560.461 315.238 559.535 315.031 558.848 314.441L557.379 313.167L560.381 312.371C561.707 312.02 562.601 310.794 562.537 309.424L562.202 306.046C562.138 304.533 560.908 303.323 559.391 303.275H559.551C557.714 303.211 555.926 302.08 555.207 300.391L552.908 294.29L572.502 287.584Z" fill="#E57281"/>
<path fill-rule="evenodd" clip-rule="evenodd" d="M552.385 294.503C552.628 294.4 552.91 294.513 553.013 294.756L555.472 300.539C555.472 300.539 555.472 300.539 555.472 300.539C556.119 302.058 557.584 303.074 559.231 303.131C560.998 303.187 562.429 304.596 562.505 306.359C562.505 306.36 562.505 306.36 562.505 306.36L562.68 310.054C562.756 311.677 561.684 312.925 560.169 313.326C560.169 313.326 560.169 313.326 560.168 313.326L557.807 313.962C557.552 314.031 557.289 313.881 557.22 313.626C557.151 313.371 557.302 313.109 557.557 313.04L559.922 312.402L559.923 312.402C561.059 312.102 561.775 311.215 561.723 310.098L561.547 306.402L561.547 306.401C561.494 305.138 560.467 304.126 559.2 304.086L559.199 304.086C557.173 304.016 555.381 302.769 554.59 300.912L552.131 295.13C552.028 294.887 552.141 294.606 552.385 294.503Z" fill="white"/>
<path fill-rule="evenodd" clip-rule="evenodd" d="M567.928 304.518C568.193 304.506 568.417 304.709 568.429 304.973L568.653 309.689C568.743 311.666 567.446 313.429 565.534 313.932C565.278 314 565.016 313.847 564.949 313.592C564.881 313.337 565.034 313.075 565.289 313.008C566.763 312.62 567.765 311.261 567.696 309.733C567.696 309.733 567.696 309.733 567.696 309.732L567.472 305.018C567.46 304.754 567.664 304.531 567.928 304.518Z" fill="white"/>
<path fill-rule="evenodd" clip-rule="evenodd" d="M574.044 302.942C574.309 302.929 574.533 303.133 574.546 303.397L574.769 308.113C574.859 310.089 573.562 311.852 571.65 312.356C571.395 312.423 571.132 312.271 571.065 312.016C570.997 311.761 571.15 311.499 571.406 311.432C572.88 311.044 573.881 309.685 573.812 308.157C573.812 308.157 573.812 308.156 573.812 308.156L573.589 303.442C573.576 303.178 573.78 302.954 574.044 302.942Z" fill="white"/>
<path fill-rule="evenodd" clip-rule="evenodd" d="M520.212 237.239L516.347 217.072L517.288 216.893L521.153 237.06C521.798 240.451 522.994 243.731 524.678 246.745L524.678 246.747L551.152 294.408L575.253 286.128L575.565 287.031L550.704 295.573L523.841 247.211C523.841 247.211 523.841 247.211 523.841 247.21C522.107 244.107 520.876 240.73 520.212 237.239Z" fill="white"/>
<path d="M532.995 262.718L524.26 246.979C522.791 244.319 521.689 241.483 520.986 238.536C521.817 238.265 522.679 238.074 523.589 237.995C530.488 237.389 536.604 243.172 537.259 250.898C537.642 255.581 535.934 259.898 532.995 262.718Z" fill="white"/>
</svg>
