<svg width="20" height="20" viewBox="0 0 20 20" fill="none" xmlns="http://www.w3.org/2000/svg">
<g opacity="0.6">
<path d="M18.317 6.56655C18.2779 5.68098 18.1347 5.07217 17.9296 4.54462C17.718 3.98464 17.3924 3.48329 16.9658 3.06652C16.549 2.64326 16.0444 2.31437 15.4909 2.10604C14.9603 1.9009 14.3547 1.75769 13.4691 1.71865C12.5769 1.6763 12.2937 1.6665 10.0309 1.6665C7.76806 1.6665 7.48483 1.6763 6.59596 1.71534C5.7104 1.75439 5.10158 1.89772 4.57416 2.10274C4.01406 2.31437 3.51271 2.63995 3.09593 3.06652C2.67267 3.48329 2.34391 3.98795 2.13546 4.54144C1.93032 5.07217 1.78711 5.67768 1.74807 6.56324C1.70572 7.45542 1.69592 7.73865 1.69592 10.0015C1.69592 12.2643 1.70572 12.5475 1.74476 13.4364C1.78381 14.3219 1.92714 14.9308 2.13228 15.4583C2.34391 16.0183 2.67267 16.5196 3.09593 16.9364C3.51271 17.3597 4.01736 17.6886 4.57085 17.8969C5.10158 18.102 5.70709 18.2452 6.59278 18.2843C7.48152 18.3235 7.76488 18.3331 10.0277 18.3331C12.2905 18.3331 12.5737 18.3235 13.4626 18.2843C14.3482 18.2452 14.957 18.102 15.4844 17.8969C16.6045 17.4638 17.4901 16.5783 17.9231 15.4583C18.1281 14.9276 18.2715 14.3219 18.3105 13.4364C18.3495 12.5475 18.3593 12.2643 18.3593 10.0015C18.3593 7.73865 18.356 7.45542 18.317 6.56655ZM16.8161 13.3713C16.7803 14.1852 16.6435 14.6248 16.5296 14.9178C16.2495 15.6439 15.6733 16.2201 14.9472 16.5002C14.6542 16.6141 14.2114 16.7509 13.4007 16.7866C12.5216 16.8258 12.2579 16.8354 10.0342 16.8354C7.81042 16.8354 7.54346 16.8258 6.66756 16.7866C5.8536 16.7509 5.41407 16.6141 5.12104 16.5002C4.75972 16.3666 4.43083 16.155 4.16387 15.8783C3.88713 15.608 3.6755 15.2824 3.54196 14.9211C3.428 14.6281 3.29128 14.1852 3.25555 13.3746C3.21637 12.4955 3.20671 12.2317 3.20671 10.008C3.20671 7.78418 3.21637 7.51723 3.25555 6.64146C3.29128 5.8275 3.428 5.38796 3.54196 5.09493C3.6755 4.73348 3.88713 4.40472 4.16718 4.13764C4.43731 3.86089 4.7629 3.64926 5.12435 3.51585C5.41737 3.40189 5.86022 3.26517 6.67087 3.22931C7.54995 3.19026 7.81372 3.18047 10.0374 3.18047C12.2644 3.18047 12.5281 3.19026 13.404 3.22931C14.2179 3.26517 14.6575 3.40189 14.9505 3.51585C15.3118 3.64926 15.6407 3.86089 15.9077 4.13764C16.1844 4.4079 16.396 4.73348 16.5296 5.09493C16.6435 5.38796 16.7803 5.83068 16.8161 6.64146C16.8552 7.52054 16.865 7.78418 16.865 10.008C16.865 12.2317 16.8552 12.4922 16.8161 13.3713Z" fill="white"/>
<path d="M10.0309 5.72003C7.6672 5.72003 5.74943 7.63767 5.74943 10.0015C5.74943 12.3653 7.6672 14.2829 10.0309 14.2829C12.3947 14.2829 14.3123 12.3653 14.3123 10.0015C14.3123 7.63767 12.3947 5.72003 10.0309 5.72003ZM10.0309 12.7787C8.49744 12.7787 7.25361 11.535 7.25361 10.0015C7.25361 8.46791 8.49744 7.22421 10.0309 7.22421C11.5644 7.22421 12.8081 8.46791 12.8081 10.0015C12.8081 11.535 11.5644 12.7787 10.0309 12.7787Z" fill="white"/>
<path d="M15.4813 5.55075C15.4813 6.10272 15.0337 6.55028 14.4816 6.55028C13.9296 6.55028 13.4821 6.10272 13.4821 5.55075C13.4821 4.99866 13.9296 4.55123 14.4816 4.55123C15.0337 4.55123 15.4813 4.99866 15.4813 5.55075Z" fill="white"/>
</g>
</svg>
