<svg width="20" height="20" viewBox="0 0 20 20" fill="none" xmlns="http://www.w3.org/2000/svg">
<path d="M18.3292 18.3332L18.3333 18.3325V12.22C18.3333 9.2297 17.6896 6.92623 14.1937 6.92623C12.5132 6.92623 11.3854 7.84845 10.925 8.72276H10.8764V7.20539H7.56179V18.3325H11.0132V12.8228C11.0132 11.3721 11.2882 9.96928 13.0847 9.96928C14.8549 9.96928 14.8812 11.6248 14.8812 12.9158V18.3332H18.3292Z" fill="white"/>
<path d="M1.94165 7.20609H5.39721V18.3332H1.94165V7.20609Z" fill="white"/>
<path d="M3.66805 1.6665C2.56318 1.6665 1.66666 2.56303 1.66666 3.66789C1.66666 4.77275 2.56318 5.68803 3.66805 5.68803C4.77291 5.68803 5.66943 4.77275 5.66943 3.66789C5.66874 2.56303 4.77221 1.6665 3.66805 1.6665Z" fill="white"/>
</svg>
