<svg width="1230" height="354" viewBox="0 0 1230 354" fill="none" xmlns="http://www.w3.org/2000/svg">
<rect width="1230" height="354" fill="#E5E5E5"/>
<rect width="1920" height="4862" transform="translate(-345 -2405)" fill="white"/>
<g clip-path="url(#clip0_0_1)">
<rect opacity="0.2" width="1230" height="354" rx="4" fill="url(#paint0_linear_0_1)"/>
<g opacity="0.2">
<path d="M1134.95 -96.8984C1172.02 -96.8984 1202 -65.8893 1202 -27.556C1202 10.6823 1172.02 41.7865 1134.95 41.7865C1097.98 41.7865 1067.91 10.7774 1067.91 -27.556C1068 -65.8893 1097.98 -96.8984 1134.95 -96.8984ZM1134.95 37.3158C1169.63 37.3158 1197.68 8.30425 1197.68 -27.556C1197.68 -63.4162 1169.63 -92.4278 1134.95 -92.4278C1100.28 -92.4278 1072.23 -63.4162 1072.23 -27.556C1072.23 8.20912 1100.37 37.3158 1134.95 37.3158Z" fill="white"/>
<path d="M1134.95 -81.9648C1163.92 -81.9648 1187.47 -57.6141 1187.47 -27.6514C1187.47 2.31143 1163.92 26.6621 1134.95 26.6621C1105.98 26.6621 1082.44 2.40654 1082.44 -27.5562C1082.44 -57.6141 1105.98 -81.9649 1134.95 -81.9648ZM1134.95 18.3867C1159.51 18.3867 1179.47 -2.25433 1179.47 -27.6514C1179.47 -53.0484 1159.51 -73.6894 1134.95 -73.6894C1110.4 -73.6894 1090.44 -53.0484 1090.44 -27.6514C1090.44 -2.25434 1110.4 18.3867 1134.95 18.3867Z" fill="white"/>
</g>
<g opacity="0.8" clip-path="url(#clip1_0_1)">
<path d="M64.2038 285.839C64.2038 285.04 64.803 284.442 65.6019 284.442C66.4008 284.442 67 285.04 67 285.839C67 286.637 66.4008 287.236 65.6019 287.236C64.803 287.236 64.2038 286.571 64.2038 285.839Z" fill="white"/>
<path d="M52.2868 285.839C52.2868 285.04 52.886 284.442 53.6849 284.442C54.4838 284.442 55.083 285.04 55.083 285.839C55.083 286.637 54.4838 287.236 53.6849 287.236C52.9526 287.236 52.2868 286.571 52.2868 285.839Z" fill="white"/>
<path d="M40.4362 285.839C40.4362 285.04 41.0354 284.442 41.8343 284.442C42.6332 284.442 43.2324 285.04 43.2324 285.839C43.2324 286.637 42.6332 287.236 41.8343 287.236C41.0354 287.236 40.4362 286.571 40.4362 285.839Z" fill="white"/>
<path d="M28.519 285.839C28.519 285.04 29.1182 284.442 29.9171 284.442C30.716 284.442 31.3152 285.04 31.3152 285.839C31.3152 286.637 30.716 287.236 29.9171 287.236C29.1182 287.236 28.519 286.571 28.519 285.839Z" fill="white"/>
<path d="M16.602 285.839C16.602 285.04 17.2012 284.442 18.0001 284.442C18.799 284.442 19.3982 285.04 19.3982 285.839C19.3982 286.637 18.799 287.236 18.0001 287.236C17.2678 287.236 16.602 286.571 16.602 285.839Z" fill="white"/>
<path d="M4.68453 285.839C4.68453 285.04 5.28371 284.442 6.08262 284.442C6.88153 284.442 7.48071 285.04 7.48071 285.839C7.48071 286.637 6.88153 287.236 6.08262 287.236C5.28371 287.236 4.68453 286.571 4.68453 285.839Z" fill="white"/>
<path d="M64.2038 275.925C64.2038 275.126 64.803 274.527 65.6019 274.527C66.4008 274.527 67 275.126 67 275.925C67 276.723 66.4008 277.322 65.6019 277.322C64.803 277.322 64.2038 276.723 64.2038 275.925Z" fill="white"/>
<path d="M52.2868 275.925C52.2868 275.126 52.886 274.527 53.6849 274.527C54.4838 274.527 55.083 275.126 55.083 275.925C55.083 276.723 54.4838 277.322 53.6849 277.322C52.9526 277.322 52.2868 276.723 52.2868 275.925Z" fill="white"/>
<path d="M40.4362 275.925C40.4362 275.126 41.0354 274.527 41.8343 274.527C42.6332 274.527 43.2324 275.126 43.2324 275.925C43.2324 276.723 42.6332 277.322 41.8343 277.322C41.0354 277.322 40.4362 276.723 40.4362 275.925Z" fill="white"/>
<path d="M28.519 275.925C28.519 275.126 29.1182 274.527 29.9171 274.527C30.716 274.527 31.3152 275.126 31.3152 275.925C31.3152 276.723 30.716 277.322 29.9171 277.322C29.1182 277.322 28.519 276.723 28.519 275.925Z" fill="white"/>
<path d="M16.602 275.925C16.602 275.126 17.2012 274.527 18.0001 274.527C18.799 274.527 19.3982 275.126 19.3982 275.925C19.3982 276.723 18.799 277.322 18.0001 277.322C17.2678 277.322 16.602 276.723 16.602 275.925Z" fill="white"/>
<path d="M4.68453 275.925C4.68453 275.126 5.28371 274.527 6.08262 274.527C6.88153 274.527 7.48071 275.126 7.48071 275.925C7.48071 276.723 6.88153 277.322 6.08262 277.322C5.28371 277.322 4.68453 276.723 4.68453 275.925Z" fill="white"/>
<path d="M64.2038 305.603C64.2038 304.804 64.803 304.205 65.6019 304.205C66.4008 304.205 67 304.804 67 305.603C67 306.401 66.4008 307 65.6019 307C64.803 307 64.2038 306.401 64.2038 305.603Z" fill="white"/>
<path d="M52.2868 305.603C52.2868 304.804 52.886 304.205 53.6849 304.205C54.4838 304.205 55.083 304.804 55.083 305.603C55.083 306.401 54.4838 307 53.6849 307C52.9526 307 52.2868 306.401 52.2868 305.603Z" fill="white"/>
<path d="M40.4362 305.603C40.4362 304.804 41.0354 304.205 41.8343 304.205C42.6332 304.205 43.2324 304.804 43.2324 305.603C43.2324 306.401 42.5667 307 41.8343 307C41.0354 307 40.4362 306.401 40.4362 305.603Z" fill="white"/>
<path d="M28.519 305.603C28.519 304.804 29.1182 304.205 29.9171 304.205C30.716 304.205 31.3152 304.804 31.3152 305.603C31.3152 306.401 30.6494 307 29.9171 307C29.1848 307 28.519 306.401 28.519 305.603Z" fill="white"/>
<path d="M16.602 305.603C16.602 304.804 17.2012 304.205 18.0001 304.205C18.799 304.205 19.3982 304.804 19.3982 305.603C19.3982 306.401 18.799 307 18.0001 307C17.2678 307 16.602 306.401 16.602 305.603Z" fill="white"/>
<path d="M4.68452 305.603C4.68452 304.804 5.28371 304.205 6.08262 304.205C6.88153 304.205 7.48071 304.804 7.48071 305.603C7.48071 306.401 6.88153 307 6.08262 307C5.28371 307 4.68452 306.401 4.68452 305.603Z" fill="white"/>
<path d="M64.2038 295.689C64.2038 294.89 64.803 294.291 65.6019 294.291C66.4008 294.291 67 294.957 67 295.689C67 296.487 66.4008 297.086 65.6019 297.086C64.803 297.086 64.2038 296.487 64.2038 295.689Z" fill="white"/>
<path d="M52.2868 295.689C52.2868 294.89 52.886 294.291 53.6849 294.291C54.4838 294.291 55.083 294.89 55.083 295.689C55.083 296.487 54.4838 297.086 53.6849 297.086C52.9526 297.086 52.2868 296.487 52.2868 295.689Z" fill="white"/>
<path d="M40.4362 295.689C40.4362 294.89 41.0354 294.291 41.8343 294.291C42.6332 294.291 43.2324 294.89 43.2324 295.689C43.2324 296.487 42.6332 297.086 41.8343 297.086C41.0354 297.086 40.4362 296.487 40.4362 295.689Z" fill="white"/>
<path d="M28.519 295.689C28.519 294.89 29.1182 294.291 29.9171 294.291C30.716 294.291 31.3152 294.89 31.3152 295.689C31.3152 296.487 30.716 297.086 29.9171 297.086C29.1182 297.086 28.519 296.487 28.519 295.689Z" fill="white"/>
<path d="M16.602 295.689C16.602 294.89 17.2012 294.291 18.0001 294.291C18.799 294.291 19.3982 294.89 19.3982 295.689C19.3982 296.487 18.799 297.086 18.0001 297.086C17.2678 297.086 16.602 296.487 16.602 295.689Z" fill="white"/>
<path d="M4.68453 295.689C4.68453 294.89 5.28371 294.291 6.08262 294.291C6.88153 294.291 7.48071 294.89 7.48071 295.689C7.48071 296.487 6.88153 297.086 6.08262 297.086C5.28371 297.086 4.68453 296.487 4.68453 295.689Z" fill="white"/>
<path d="M64.2038 266.075C64.2038 265.277 64.803 264.678 65.6019 264.678C66.4008 264.678 67 265.277 67 266.075C67 266.874 66.4008 267.473 65.6019 267.473C64.803 267.473 64.2038 266.807 64.2038 266.075Z" fill="white"/>
<path d="M52.2868 266.075C52.2868 265.277 52.886 264.678 53.6849 264.678C54.4838 264.678 55.083 265.277 55.083 266.075C55.083 266.874 54.4838 267.473 53.6849 267.473C52.9526 267.473 52.2868 266.807 52.2868 266.075Z" fill="white"/>
<path d="M40.4362 266.075C40.4362 265.277 41.0354 264.678 41.8343 264.678C42.6332 264.678 43.2324 265.277 43.2324 266.075C43.2324 266.874 42.6332 267.473 41.8343 267.473C41.0354 267.473 40.4362 266.807 40.4362 266.075Z" fill="white"/>
<path d="M28.519 266.075C28.519 265.277 29.1182 264.678 29.9171 264.678C30.716 264.678 31.3152 265.277 31.3152 266.075C31.3152 266.874 30.716 267.473 29.9171 267.473C29.1182 267.473 28.519 266.807 28.519 266.075Z" fill="white"/>
<path d="M16.602 266.075C16.602 265.277 17.2012 264.678 18.0001 264.678C18.799 264.678 19.3982 265.277 19.3982 266.075C19.3982 266.874 18.799 267.473 18.0001 267.473C17.2678 267.473 16.602 266.807 16.602 266.075Z" fill="white"/>
<path d="M4.68453 266.075C4.68453 265.277 5.28371 264.678 6.08262 264.678C6.88153 264.678 7.48071 265.277 7.48071 266.075C7.48071 266.874 6.88153 267.473 6.08262 267.473C5.28371 267.473 4.68453 266.807 4.68453 266.075Z" fill="white"/>
<path d="M64.2038 256.161C64.2038 255.363 64.803 254.764 65.6019 254.764C66.4008 254.764 67 255.363 67 256.161C67 256.96 66.4008 257.559 65.6019 257.559C64.803 257.559 64.2038 256.96 64.2038 256.161Z" fill="white"/>
<path d="M52.2868 256.161C52.2868 255.363 52.886 254.764 53.6849 254.764C54.4838 254.764 55.083 255.363 55.083 256.161C55.083 256.96 54.4838 257.559 53.6849 257.559C52.9526 257.559 52.2868 256.96 52.2868 256.161Z" fill="white"/>
<path d="M40.4362 256.161C40.4362 255.363 41.0354 254.764 41.8343 254.764C42.6332 254.764 43.2324 255.363 43.2324 256.161C43.2324 256.96 42.6332 257.559 41.8343 257.559C41.0354 257.559 40.4362 256.96 40.4362 256.161Z" fill="white"/>
<path d="M29.9171 254.764C29.1449 254.764 28.519 255.389 28.519 256.161C28.519 256.933 29.1449 257.559 29.9171 257.559C30.6892 257.559 31.3152 256.933 31.3152 256.161C31.3152 255.389 30.6892 254.764 29.9171 254.764Z" fill="white"/>
<path d="M16.602 256.161C16.602 255.363 17.2012 254.764 18.0001 254.764C18.799 254.764 19.3982 255.363 19.3982 256.161C19.3982 256.96 18.799 257.559 18.0001 257.559C17.2678 257.559 16.602 256.96 16.602 256.161Z" fill="white"/>
<path d="M4.68453 256.161C4.68453 255.363 5.28371 254.764 6.08262 254.764C6.88153 254.764 7.48071 255.363 7.48071 256.161C7.48071 256.96 6.88153 257.559 6.08262 257.559C5.28371 257.559 4.68453 256.96 4.68453 256.161Z" fill="white"/>
<path d="M64.2038 246.245C64.2038 245.447 64.803 244.848 65.6019 244.848C66.4008 244.848 67 245.447 67 246.245C67 247.044 66.4008 247.643 65.6019 247.643C64.803 247.643 64.2038 247.044 64.2038 246.245Z" fill="white"/>
<path d="M52.2868 246.245C52.2868 245.447 52.886 244.848 53.6849 244.848C54.4838 244.848 55.083 245.447 55.083 246.245C55.083 247.044 54.4838 247.643 53.6849 247.643C52.9526 247.643 52.2868 247.044 52.2868 246.245Z" fill="white"/>
<path d="M40.4362 246.245C40.4362 245.447 41.0354 244.848 41.8343 244.848C42.6332 244.848 43.2324 245.447 43.2324 246.245C43.2324 247.044 42.6332 247.643 41.8343 247.643C41.0354 247.643 40.4362 247.044 40.4362 246.245Z" fill="white"/>
<path d="M28.519 246.245C28.519 245.447 29.1182 244.848 29.9171 244.848C30.716 244.848 31.3152 245.447 31.3152 246.245C31.3152 247.044 30.716 247.643 29.9171 247.643C29.1182 247.643 28.519 247.044 28.519 246.245Z" fill="white"/>
<path d="M16.602 246.245C16.602 245.447 17.2012 244.848 18.0001 244.848C18.799 244.848 19.3982 245.447 19.3982 246.245C19.3982 247.044 18.799 247.643 18.0001 247.643C17.2678 247.643 16.602 247.044 16.602 246.245Z" fill="white"/>
<path d="M4.68453 246.245C4.68453 245.447 5.28371 244.848 6.08262 244.848C6.88153 244.848 7.48071 245.447 7.48071 246.245C7.48071 247.044 6.88153 247.643 6.08262 247.643C5.28371 247.643 4.68453 247.044 4.68453 246.245Z" fill="white"/>
<path d="M64.2038 236.398C64.2038 235.599 64.803 235 65.6019 235C66.4008 235 67 235.599 67 236.398C67 237.196 66.4008 237.795 65.6019 237.795C64.803 237.795 64.2038 237.129 64.2038 236.398Z" fill="white"/>
<path d="M52.2868 236.398C52.2868 235.599 52.886 235 53.6849 235C54.4838 235 55.083 235.599 55.083 236.398C55.083 237.196 54.4838 237.795 53.6849 237.795C52.9526 237.795 52.2868 237.129 52.2868 236.398Z" fill="white"/>
<path d="M40.4362 236.398C40.4362 235.599 41.0354 235 41.8343 235C42.6332 235 43.2324 235.599 43.2324 236.398C43.2324 237.196 42.6332 237.795 41.8343 237.795C41.0354 237.795 40.4362 237.129 40.4362 236.398Z" fill="white"/>
<path d="M28.519 236.398C28.519 235.599 29.1182 235 29.9171 235C30.716 235 31.3152 235.599 31.3152 236.398C31.3152 237.196 30.716 237.795 29.9171 237.795C29.1182 237.795 28.519 237.129 28.519 236.398Z" fill="white"/>
<path d="M16.602 236.398C16.602 235.599 17.2012 235 18.0001 235C18.799 235 19.3982 235.599 19.3982 236.398C19.3982 237.196 18.799 237.795 18.0001 237.795C17.2678 237.795 16.602 237.129 16.602 236.398Z" fill="white"/>
<path d="M4.68453 236.398C4.68453 235.599 5.28371 235 6.08262 235C6.88153 235 7.48071 235.599 7.48071 236.398C7.48071 237.196 6.88153 237.795 6.08262 237.795C5.28371 237.795 4.68453 237.129 4.68453 236.398Z" fill="white"/>
</g>
<g opacity="0.3">
<path d="M415.126 278.912L415.126 270L439.004 270L439.004 293.811L430.024 293.811L430.024 278.912L415.126 278.912Z" fill="white"/>
<path d="M398.999 295.102L398.999 286.122L422.81 286.122L422.81 310L413.898 310L413.898 295.102L398.999 295.102Z" fill="white"/>
</g>
<g clip-path="url(#clip2_0_1)">
<path d="M118.487 241.654H336.023C344.205 241.654 350.819 235.068 350.819 226.922V75.42C350.819 67.2735 344.205 60.6875 336.023 60.6875H118.487C110.306 60.6875 103.691 67.2735 103.691 75.42V226.899C103.668 235.045 110.306 241.654 118.487 241.654Z" fill="white"/>
<path d="M118.487 242.344H336.023C344.574 242.344 351.511 235.436 351.511 226.923V75.421C351.511 66.9073 344.574 60 336.023 60H118.487C109.937 60 103 66.9073 103 75.421V226.9C102.977 231.008 104.59 234.886 107.517 237.8C110.444 240.737 114.339 242.344 118.487 242.344ZM336.023 61.3769C343.79 61.3769 350.128 67.6875 350.128 75.421V226.923C350.128 234.656 343.79 240.967 336.023 240.967H118.487C114.708 240.967 111.159 239.498 108.485 236.836C105.835 234.174 104.36 230.64 104.383 226.9V75.421C104.383 67.6875 110.721 61.3769 118.487 61.3769H336.023Z" fill="#3FB1B5"/>
<path d="M118.349 227.568H333.788C336.991 227.568 339.572 224.975 339.572 221.808V76.8693C339.572 73.6795 336.968 71.1094 333.788 71.1094H118.349C115.145 71.1094 112.564 73.7025 112.564 76.8693V221.785C112.541 224.975 115.145 227.568 118.349 227.568Z" fill="#66B0F0"/>
<path d="M118.349 228.255H333.788C337.36 228.255 340.264 225.364 340.264 221.807V76.8683C340.264 73.3113 337.36 70.4199 333.788 70.4199H118.349C114.776 70.4199 111.873 73.3113 111.873 76.8683V221.784C111.85 223.505 112.518 225.134 113.739 226.351C114.984 227.567 116.597 228.255 118.349 228.255ZM333.788 71.7968C336.599 71.7968 338.881 74.0686 338.881 76.8683V221.807C338.881 224.607 336.599 226.878 333.788 226.878H118.349C116.989 226.878 115.698 226.351 114.73 225.387C113.762 224.423 113.255 223.161 113.255 221.807V76.8683C113.255 74.0686 115.537 71.7968 118.349 71.7968H333.788Z" fill="#66B0F0"/>
<path d="M326.067 85.3354H329.478C330.976 85.3354 332.198 84.1192 332.198 82.6276V79.2313C332.198 77.7397 330.976 76.5234 329.478 76.5234H326.067C324.569 76.5234 323.348 77.7397 323.348 79.2313V82.6276C323.371 84.1421 324.569 85.3354 326.067 85.3354ZM329.478 77.9003C330.216 77.9003 330.815 78.497 330.815 79.2313V82.6276C330.815 83.3619 330.216 83.9586 329.478 83.9586H326.067C325.33 83.9586 324.753 83.3619 324.73 82.6046V79.2313C324.73 78.497 325.33 77.9003 326.067 77.9003H329.478V77.9003Z" fill="white"/>
<path d="M310.557 85.3354H313.968C315.466 85.3354 316.688 84.1192 316.688 82.6276V79.2313C316.688 77.7397 315.466 76.5234 313.968 76.5234H310.557C309.059 76.5234 307.838 77.7397 307.838 79.2313V82.6276C307.838 84.1192 309.059 85.3354 310.557 85.3354ZM313.968 77.9003C314.705 77.9003 315.305 78.497 315.305 79.2313V82.6276C315.305 83.3619 314.705 83.9586 313.968 83.9586H310.557C309.82 83.9586 309.22 83.3619 309.22 82.6276V79.2313C309.22 78.497 309.82 77.9003 310.557 77.9003H313.968Z" fill="white"/>
<path d="M295.047 85.3354H298.458C299.956 85.3354 301.177 84.1192 301.177 82.6276V79.2313C301.177 77.7397 299.956 76.5234 298.458 76.5234H295.047C293.549 76.5234 292.327 77.7397 292.327 79.2313V82.6276C292.327 84.1192 293.549 85.3354 295.047 85.3354ZM298.458 77.9003C299.195 77.9003 299.794 78.497 299.794 79.2313V82.6276C299.794 83.3619 299.195 83.9586 298.458 83.9586H295.047C294.286 83.9586 293.71 83.3848 293.71 82.6276V79.2313C293.71 78.497 294.309 77.9003 295.047 77.9003H298.458Z" fill="white"/>
<path d="M156.913 85.3354H160.324C161.822 85.3354 163.043 84.1192 163.043 82.6276V79.2313C163.043 77.7397 161.822 76.5234 160.324 76.5234H156.913C155.415 76.5234 154.193 77.7397 154.193 79.2313V82.6276C154.216 84.1421 155.415 85.3354 156.913 85.3354ZM160.324 77.9003C161.061 77.9003 161.66 78.497 161.66 79.2313V82.6276C161.66 83.3619 161.061 83.9586 160.324 83.9586H156.913C156.175 83.9586 155.599 83.3619 155.576 82.6046V79.2313C155.576 78.497 156.175 77.9003 156.913 77.9003H160.324V77.9003Z" fill="white"/>
<path d="M141.403 85.3354H144.814C146.312 85.3354 147.533 84.1192 147.533 82.6276V79.2313C147.533 77.7397 146.312 76.5234 144.814 76.5234H141.403C139.905 76.5234 138.683 77.7397 138.683 79.2313V82.6276C138.683 84.1192 139.905 85.3354 141.403 85.3354ZM144.814 77.9003C145.551 77.9003 146.15 78.497 146.15 79.2313V82.6276C146.15 83.3619 145.551 83.9586 144.814 83.9586H141.403C140.665 83.9586 140.066 83.3619 140.066 82.6276V79.2313C140.066 78.497 140.665 77.9003 141.403 77.9003H144.814Z" fill="white"/>
<path d="M125.892 85.3354H129.303C130.801 85.3354 132.023 84.1192 132.023 82.6276V79.2313C132.023 77.7397 130.801 76.5234 129.303 76.5234H125.892C124.394 76.5234 123.173 77.7397 123.173 79.2313V82.6276C123.173 84.1192 124.394 85.3354 125.892 85.3354ZM129.303 77.9003C130.041 77.9003 130.64 78.497 130.64 79.2313V82.6276C130.64 83.3619 130.041 83.9586 129.303 83.9586H125.892C125.132 83.9586 124.556 83.3848 124.556 82.6276V79.2313C124.556 78.497 125.155 77.9003 125.892 77.9003H129.303Z" fill="white"/>
<path d="M181.335 293.312H265.777L249.207 241.656H197.928L181.335 293.312Z" fill="white"/>
<path d="M180.39 293.999H266.722L249.714 240.967H197.422L180.39 293.999ZM264.833 292.622H182.28L198.436 242.344H248.7L264.833 292.622Z" fill="#3FB1B5"/>
<path d="M259.14 272.636L249.207 241.656H197.928L259.14 272.636Z" fill="#3FB1B5"/>
<path d="M131.025 119.321H172.07C176.288 119.321 179.722 115.902 179.722 111.702V85.3121C179.722 81.1126 176.288 77.6934 172.07 77.6934H131.025C126.807 77.6934 123.373 81.1126 123.373 85.3121V111.702C123.373 115.902 126.807 119.321 131.025 119.321ZM172.07 79.0702C175.527 79.0702 178.339 81.8699 178.339 85.3121V111.702C178.339 115.144 175.527 117.944 172.07 117.944H131.025C127.568 117.944 124.756 115.144 124.756 111.702V85.3121C124.756 81.8699 127.568 79.0702 131.025 79.0702H172.07Z" fill="white"/>
<path d="M135.979 88.4765H167.299C167.691 88.4765 167.991 88.1782 167.991 87.788C167.991 87.3979 167.691 87.0996 167.299 87.0996H135.979C135.587 87.0996 135.288 87.3979 135.288 87.788C135.288 88.1782 135.587 88.4765 135.979 88.4765Z" fill="white"/>
<path d="M135.979 95.5898H167.299C167.691 95.5898 167.991 95.2914 167.991 94.9013C167.991 94.5112 167.691 94.2129 167.299 94.2129H135.979C135.587 94.2129 135.288 94.5112 135.288 94.9013C135.288 95.2914 135.587 95.5898 135.979 95.5898Z" fill="white"/>
<path d="M135.979 102.705H167.299C167.691 102.705 167.991 102.407 167.991 102.017C167.991 101.626 167.691 101.328 167.299 101.328H135.979C135.587 101.328 135.288 101.626 135.288 102.017C135.288 102.407 135.587 102.705 135.979 102.705Z" fill="white"/>
<path d="M135.979 109.82H167.299C167.691 109.82 167.991 109.522 167.991 109.132C167.991 108.742 167.691 108.443 167.299 108.443H135.979C135.587 108.443 135.288 108.742 135.288 109.132C135.288 109.522 135.587 109.82 135.979 109.82Z" fill="white"/>
<path d="M119.548 227.567H282.695L292.259 241.221C303.068 256.642 325.907 256.871 337.015 241.657L395.277 161.867C392.834 164.896 381.657 161.523 371.009 154.547C360.2 147.456 353.217 138.529 355.407 135.225L315.006 186.49L302.63 164.736C299.242 158.976 293.619 154.845 287.074 153.33L244.968 144.45H208.669L168.661 153.239C161.701 154.822 155.801 159.343 152.459 165.608L119.548 227.567Z" fill="white"/>
<path d="M314.798 253.613C323.901 253.613 332.198 249.414 337.568 242.047L395.83 162.258L394.723 161.432C392.764 163.841 382.37 161.179 371.377 153.973C366.261 150.623 361.813 146.745 358.863 143.027C356.19 139.677 355.106 136.9 355.982 135.592L354.853 134.789L315.098 185.251L303.229 164.392C299.749 158.471 293.918 154.203 287.234 152.665L245.036 143.762H208.6L208.53 143.785L168.522 152.574C161.377 154.203 155.293 158.838 151.859 165.287L118.419 228.256H282.348L291.705 241.611C296.983 249.138 305.303 253.521 314.544 253.613C314.614 253.613 314.706 253.613 314.798 253.613ZM393.156 163.589L336.439 241.244C331.276 248.312 323.302 252.328 314.521 252.236C305.741 252.144 297.836 247.991 292.812 240.831L283.04 226.879H120.677L153.057 165.929C156.307 159.825 162.046 155.442 168.798 153.905L208.738 145.139H244.898L286.935 153.996C293.249 155.465 298.758 159.504 302.03 165.08L314.913 187.73L354.415 137.612C354.738 139.333 355.867 141.49 357.803 143.899C360.845 147.709 365.408 151.702 370.64 155.121C377.945 159.894 386.726 163.657 391.958 163.657C392.373 163.657 392.787 163.635 393.156 163.589Z" fill="#3FB1B5"/>
<path d="M164.328 227.316C164.581 227.316 164.812 227.178 164.95 226.948L176.542 204.161C176.704 203.817 176.588 203.404 176.243 203.243C175.897 203.083 175.482 203.197 175.321 203.542L163.728 226.329C163.567 226.673 163.682 227.086 164.028 227.247C164.12 227.293 164.212 227.316 164.328 227.316Z" fill="#3FB1B5"/>
<path d="M283.616 229.448C283.732 229.448 283.824 229.425 283.939 229.379C284.285 229.218 284.423 228.782 284.239 228.461L272.761 205.903C272.6 205.559 272.162 205.421 271.84 205.605C271.494 205.766 271.356 206.202 271.54 206.523L283.017 229.081C283.132 229.31 283.363 229.448 283.616 229.448Z" fill="#3FB1B5"/>
<path d="M304.428 200.764C304.635 200.764 304.843 200.672 304.981 200.488L331.277 167.007C331.507 166.709 331.461 166.273 331.162 166.044C330.862 165.814 330.424 165.86 330.194 166.158L303.898 199.639C303.667 199.938 303.713 200.374 304.013 200.603C304.128 200.718 304.289 200.764 304.428 200.764Z" fill="#3FB1B5"/>
<path d="M212.702 168.178L222.82 155.901C223.073 155.603 223.027 155.167 222.728 154.937C222.428 154.685 221.99 154.731 221.76 155.029L212.518 166.205L191.384 148.351C191.085 148.099 190.647 148.145 190.416 148.42C190.163 148.719 190.209 149.155 190.486 149.384L212.702 168.178Z" fill="#3FB1B5"/>
<path d="M238.975 168.613L263.335 149.405C263.635 149.176 263.681 148.74 263.451 148.442C263.22 148.143 262.782 148.097 262.483 148.327L239.229 166.662L230.264 155.257C230.033 154.959 229.595 154.913 229.296 155.142C228.996 155.372 228.95 155.808 229.181 156.106L238.975 168.613Z" fill="#3FB1B5"/>
<path d="M384.192 174.259C386.381 174.259 387.533 173.593 388.11 172.859C388.34 172.561 388.294 172.125 387.994 171.895C387.695 171.666 387.257 171.712 387.026 172.01C386.058 173.226 382.901 173.157 378.591 171.872C374.005 170.495 368.474 167.788 363.45 164.46C358.31 161.064 353.839 157.14 350.866 153.376C348.17 149.98 347.087 147.18 347.963 145.849C348.17 145.528 348.078 145.115 347.755 144.886C347.432 144.679 347.018 144.771 346.787 145.092C345.543 146.997 346.603 150.233 349.76 154.225C352.825 158.081 357.412 162.12 362.666 165.585C367.875 169.027 373.383 171.735 378.177 173.18C380.781 173.961 382.74 174.259 384.192 174.259Z" fill="#3FB1B5"/>
<path d="M354.623 151.977C356.443 151.977 357.918 150.509 357.918 148.696C357.918 146.883 356.443 145.414 354.623 145.414C352.802 145.414 351.327 146.883 351.327 148.696C351.327 150.509 352.802 151.977 354.623 151.977ZM354.623 146.791C355.683 146.791 356.536 147.64 356.536 148.696C356.536 149.751 355.683 150.6 354.623 150.6C353.563 150.6 352.71 149.751 352.71 148.696C352.71 147.64 353.563 146.791 354.623 146.791Z" fill="#3FB1B5"/>
<path d="M226.023 168.27C227.844 168.27 229.319 166.801 229.319 164.989C229.319 163.176 227.844 161.707 226.023 161.707C224.203 161.707 222.728 163.176 222.728 164.989C222.728 166.801 224.203 168.27 226.023 168.27ZM226.023 163.084C227.083 163.084 227.936 163.933 227.936 164.989C227.936 166.044 227.083 166.893 226.023 166.893C224.963 166.893 224.11 166.044 224.11 164.989C224.11 163.933 224.963 163.084 226.023 163.084Z" fill="#3FB1B5"/>
<path d="M226.023 189.153C227.844 189.153 229.319 187.684 229.319 185.871C229.319 184.059 227.844 182.59 226.023 182.59C224.203 182.59 222.728 184.059 222.728 185.871C222.728 187.684 224.203 189.153 226.023 189.153ZM226.023 183.967C227.083 183.967 227.936 184.816 227.936 185.871C227.936 186.927 227.083 187.776 226.023 187.776C224.963 187.776 224.11 186.927 224.11 185.871C224.11 184.816 224.963 183.967 226.023 183.967Z" fill="#3FB1B5"/>
<path d="M293.088 242.322L282.694 227.566V242.322H293.088Z" fill="#3FB1B5"/>
<path d="M371.262 153.857C381.909 160.833 393.087 164.206 395.53 161.177C395.576 161.131 395.599 161.085 395.645 161.017C396.152 160.259 396.106 159.227 395.645 157.964C394.055 153.811 387.487 147.385 379.144 141.924C372.506 137.564 365.961 134.535 361.421 133.594C358.794 133.066 356.835 133.227 355.89 134.236L355.659 134.512C353.493 137.816 360.453 146.766 371.262 153.857Z" fill="#FE5244"/>
<path d="M371.262 153.856C377.323 157.826 383.569 160.649 388.27 161.75L409.312 132.193C412.239 128.063 411.271 122.349 407.1 119.434L388.155 106.17L398.895 87.9727C400.462 85.3337 399.563 81.9144 396.89 80.3769C396.014 79.8721 395.069 79.6426 394.124 79.6426C392.304 79.6426 390.506 80.5376 389.446 82.1898L355.867 134.19L355.637 134.557C353.493 137.815 360.453 146.765 371.262 153.856Z" fill="#E57281"/>
<path d="M382.209 132.539C382.509 132.539 382.808 132.516 383.108 132.448C384.26 132.218 385.251 131.53 385.873 130.566L396.959 114.043C397.166 113.722 397.074 113.309 396.774 113.08C396.452 112.873 396.037 112.965 395.806 113.263L384.721 129.786C384.283 130.451 383.615 130.91 382.831 131.071C382.048 131.231 381.241 131.071 380.573 130.635L377.968 128.937C376.586 128.042 376.194 126.206 377.07 124.829L388.8 106.723C389.008 106.402 388.915 105.989 388.593 105.782C388.27 105.576 387.855 105.667 387.648 105.989L375.917 124.095C374.627 126.114 375.226 128.799 377.231 130.084L379.835 131.782C380.527 132.287 381.356 132.539 382.209 132.539Z" fill="#9A3B82"/>
<path d="M390.806 138.023C392.234 138.023 393.64 137.335 394.493 136.073C394.7 135.752 394.608 135.338 394.286 135.109C393.963 134.902 393.548 134.994 393.318 135.316C392.419 136.669 390.575 137.06 389.192 136.188L386.818 134.696C386.15 134.26 385.666 133.594 385.505 132.791C385.344 131.988 385.482 131.185 385.92 130.519C386.127 130.198 386.035 129.785 385.712 129.556C385.39 129.349 384.975 129.441 384.744 129.762C384.099 130.749 383.869 131.919 384.122 133.09C384.376 134.237 385.067 135.224 386.058 135.866L388.432 137.358C389.169 137.794 389.999 138.023 390.806 138.023Z" fill="#9A3B82"/>
<path d="M399.241 143.163C400.623 143.163 401.983 142.521 402.836 141.305L409.128 132.47C409.358 132.148 409.266 131.735 408.966 131.506C408.667 131.276 408.229 131.368 407.998 131.666L401.707 140.501C400.762 141.809 398.987 142.154 397.65 141.305L397.604 141.282L395.415 140.065C394.724 139.629 394.263 138.964 394.078 138.184C393.894 137.38 394.055 136.577 394.493 135.889L405.348 119.825C405.555 119.504 405.486 119.091 405.164 118.862C404.841 118.655 404.426 118.724 404.196 119.045L393.341 135.109C392.672 136.118 392.465 137.312 392.718 138.459C392.972 139.606 393.663 140.593 394.677 141.213L394.701 141.236L396.89 142.452C397.65 142.957 398.457 143.163 399.241 143.163Z" fill="#9A3B82"/>
<path d="M363.703 122.074L369.211 113.56C371.031 110.738 374.834 109.958 377.623 111.839L391.289 121.064C391.289 121.064 387.325 128.155 377.692 122.533L374.465 127.65C381.057 131.804 382.946 140.547 378.66 147.041L363.703 122.074Z" fill="#E57281"/>
<path d="M378.66 147.729C378.891 147.729 379.098 147.615 379.236 147.408C381.403 144.103 382.163 140.156 381.31 136.301C380.527 132.675 378.43 129.555 375.411 127.443L377.923 123.45C381.241 125.263 384.26 125.791 386.934 125.08C390.322 124.162 391.843 121.5 391.912 121.408L392.211 120.857L378.752 111.495C377.231 110.485 375.434 110.118 373.659 110.485C371.884 110.852 370.363 111.885 369.372 113.422L363.864 121.936C363.657 122.257 363.749 122.67 364.072 122.877C364.394 123.083 364.809 122.991 365.017 122.67L370.525 114.157C371.308 112.94 372.507 112.114 373.936 111.839C375.341 111.54 376.793 111.839 377.969 112.642L390.345 121.247C389.792 121.959 388.547 123.244 386.565 123.772C384.122 124.437 381.264 123.818 378.061 121.959L377.485 121.615L373.544 127.879L374.12 128.247C377.139 130.151 379.236 133.134 379.997 136.622C380.757 140.111 380.089 143.69 378.107 146.674C377.9 146.995 377.992 147.408 378.314 147.637C378.407 147.683 378.522 147.729 378.66 147.729Z" fill="#9A3B82"/>
<path d="M371.262 153.857C377.323 157.827 383.569 160.65 388.27 161.751L393.502 154.408C390.575 150.599 385.344 146.009 379.144 141.947C372.507 137.587 365.961 134.558 361.421 133.617C358.794 133.089 356.835 133.25 355.89 134.26L355.66 134.535C355.637 134.581 355.613 134.604 355.59 134.65C355.567 134.673 355.567 134.696 355.544 134.742C355.521 134.788 355.498 134.811 355.475 134.856C353.908 138.367 360.799 146.973 371.262 153.857Z" fill="#9A3B82"/>
<path d="M208.693 124.252V144.423C208.693 150.275 216.851 155.002 226.877 155.002C236.925 155.002 245.06 150.275 245.06 144.423V124.252H208.693Z" fill="#E57281"/>
<path d="M239.736 151.904C243.031 149.999 245.083 147.338 245.083 144.423V124.252H208.692V129.851C208.692 135.657 212.241 140.866 217.634 143.046L239.736 151.904Z" fill="#9A3B82"/>
<path d="M198.552 123.061V123.405C198.552 126.894 201.386 129.716 204.89 129.716H209.061C210.467 135.361 215.583 139.561 221.713 139.561H232.038C238.146 139.561 243.285 135.384 244.668 129.716H248.839C252.342 129.716 255.177 126.894 255.177 123.405V123.061C255.177 119.573 252.342 116.751 248.839 116.751H245.06V111.771C245.06 106.447 241.119 102.041 235.979 101.307C234.85 103.188 231.439 107.686 224.479 107.434C221.206 107.319 218.164 106.699 215.652 105.965C212.633 105.093 209.614 106.929 208.853 109.797C208.738 110.44 208.669 111.082 208.669 111.748V116.728H204.89C201.409 116.728 198.552 119.573 198.552 123.061Z" fill="#E57281"/>
<path d="M205.788 116.728H208.692V111.197C208.692 110.715 208.761 110.233 208.877 109.797C209.637 106.929 212.656 105.093 215.675 105.965C218.187 106.699 221.207 107.319 224.502 107.434C231.462 107.686 234.873 103.188 236.002 101.307C241.142 102.041 245.083 106.447 245.083 111.771V116.751H248.701C248.701 116.751 252.849 101.812 249.738 97.5892C246.673 93.4356 242.986 95.2485 242.986 95.2485C242.986 95.2485 245.198 82.8108 232.845 83.0402C220.515 83.2697 204.475 97.5204 203.299 100.136C201.456 104.152 205.788 116.728 205.788 116.728Z" fill="#9A3B82"/>
<path d="M207.287 124.805C207.609 124.805 207.863 124.552 207.863 124.231C207.863 121.477 205.604 119.229 202.839 119.229C202.516 119.229 202.262 119.481 202.262 119.802C202.262 120.123 202.516 120.376 202.839 120.376C204.982 120.376 206.71 122.097 206.71 124.231C206.71 124.552 206.964 124.805 207.287 124.805Z" fill="#9A3B82"/>
<path d="M246.419 124.805C246.742 124.805 246.996 124.552 246.996 124.231C246.996 122.097 248.724 120.376 250.867 120.376C251.19 120.376 251.444 120.123 251.444 119.802C251.444 119.481 251.19 119.229 250.867 119.229C248.102 119.229 245.843 121.477 245.843 124.231C245.843 124.552 246.097 124.805 246.419 124.805Z" fill="#9A3B82"/>
<path d="M214.5 112.344C214.615 112.344 214.73 112.298 214.845 112.229C214.961 112.137 217.934 110.049 221.736 111.632C222.036 111.747 222.359 111.61 222.497 111.311C222.612 111.013 222.474 110.692 222.174 110.554C217.749 108.741 214.315 111.174 214.177 111.288C213.924 111.472 213.854 111.839 214.062 112.091C214.154 112.252 214.315 112.344 214.5 112.344Z" fill="#9A3B82"/>
<path d="M239.482 112.342C239.666 112.342 239.828 112.251 239.943 112.113C240.127 111.86 240.081 111.493 239.828 111.31C239.69 111.195 236.233 108.763 231.831 110.575C231.531 110.69 231.393 111.034 231.508 111.333C231.623 111.631 231.969 111.769 232.269 111.654C236.094 110.071 239.113 112.228 239.159 112.251C239.252 112.297 239.367 112.342 239.482 112.342Z" fill="#9A3B82"/>
<path d="M225.424 131.665C226.323 131.665 227.36 131.482 228.535 131.046C228.835 130.931 228.996 130.61 228.881 130.311C228.766 130.013 228.443 129.852 228.143 129.967C223.304 131.757 221.713 128.59 221.644 128.452C221.506 128.177 221.16 128.039 220.884 128.177C220.607 128.315 220.469 128.659 220.607 128.934C220.63 128.98 221.944 131.665 225.424 131.665Z" fill="#9A3B82"/>
<path d="M227.06 127.351C227.59 127.351 228.166 127.351 228.65 127.305C228.973 127.282 229.204 127.007 229.181 126.686C229.157 126.364 228.881 126.135 228.558 126.158C227.198 126.25 225.101 126.158 225.078 126.158C224.756 126.135 224.502 126.387 224.479 126.709C224.456 127.03 224.709 127.282 225.032 127.305C225.078 127.305 226.023 127.351 227.06 127.351Z" fill="#9A3B82"/>
<path d="M218.21 121.34C217.574 121.34 217.058 120.477 217.058 119.412C217.058 118.347 217.574 117.484 218.21 117.484C218.847 117.484 219.363 118.347 219.363 119.412C219.363 120.477 218.847 121.34 218.21 121.34Z" fill="#9A3B82"/>
<path d="M234.734 121.34C234.098 121.34 233.582 120.477 233.582 119.412C233.582 118.347 234.098 117.484 234.734 117.484C235.371 117.484 235.887 118.347 235.887 119.412C235.887 120.477 235.371 121.34 234.734 121.34Z" fill="#9A3B82"/>
<path d="M231.993 126.479H239.252C240.958 126.479 242.364 125.079 242.364 123.381V116.153C242.364 114.455 240.958 113.055 239.252 113.055H231.993C230.287 113.055 228.881 114.455 228.881 116.153V123.381C228.858 124.184 229.181 124.965 229.757 125.538C230.356 126.158 231.14 126.479 231.993 126.479ZM239.252 114.202C240.335 114.202 241.211 115.074 241.211 116.153V123.381C241.211 124.46 240.335 125.332 239.252 125.332H231.993C231.463 125.332 230.955 125.125 230.587 124.735C230.218 124.368 230.034 123.886 230.034 123.381V116.153C230.034 115.074 230.909 114.202 231.993 114.202H239.252Z" fill="white"/>
<path d="M214.224 126.479H221.483C223.189 126.479 224.595 125.079 224.595 123.381V116.153C224.595 114.455 223.189 113.055 221.483 113.055H214.224C212.518 113.055 211.113 114.455 211.113 116.153V123.381C211.113 125.079 212.518 126.479 214.224 126.479ZM221.483 114.202C222.567 114.202 223.442 115.074 223.442 116.153V123.381C223.442 124.46 222.567 125.332 221.483 125.332H214.224C213.141 125.332 212.265 124.46 212.265 123.381V116.153C212.265 115.074 213.141 114.202 214.224 114.202H221.483Z" fill="white"/>
<path d="M224.018 117.828H229.434V118.976H224.018V117.828Z" fill="white"/>
<path d="M237.501 219.352H212.311C209.638 219.352 207.471 217.195 207.471 214.533V201.2C207.471 198.538 209.638 196.381 212.311 196.381H237.501C240.174 196.381 242.341 198.538 242.341 201.2V214.533C242.341 217.195 240.174 219.352 237.501 219.352ZM212.311 197.758C210.398 197.758 208.854 199.295 208.854 201.2V214.533C208.854 216.437 210.398 217.975 212.311 217.975H237.501C239.414 217.975 240.958 216.437 240.958 214.533V201.2C240.958 199.295 239.414 197.758 237.501 197.758H212.311Z" fill="#66B0F0"/>
<path d="M225.54 213.292H217.012C215.653 213.292 214.546 212.19 214.546 210.836V204.893C214.546 203.539 215.653 202.438 217.012 202.438H225.54C226.899 202.438 228.005 203.539 228.005 204.893V210.836C228.005 212.19 226.899 213.292 225.54 213.292Z" fill="#66B0F0"/>
<path d="M233.836 213.134L231.209 211.39C230.495 210.908 230.057 210.082 230.057 209.187V206.571C230.057 205.676 230.495 204.85 231.209 204.368L233.836 202.624C234.459 202.211 235.265 202.67 235.265 203.45V212.331C235.288 213.088 234.459 213.547 233.836 213.134Z" fill="#66B0F0"/>
</g>
</g>
<defs>
<linearGradient id="paint0_linear_0_1" x1="-4.58211e-05" y1="354" x2="316.433" y2="-389.049" gradientUnits="userSpaceOnUse">
<stop stop-color="#FF3F3A"/>
<stop offset="1" stop-color="#F75E05"/>
</linearGradient>
<clipPath id="clip0_0_1">
<rect width="1230" height="354" fill="white"/>
</clipPath>
<clipPath id="clip1_0_1">
<rect width="62" height="72" fill="white" transform="translate(67 307) rotate(-180)"/>
</clipPath>
<clipPath id="clip2_0_1">
<rect width="308" height="234" fill="white" transform="translate(103 60)"/>
</clipPath>
</defs>
</svg>
