<svg width="1920" height="887" viewBox="0 0 1920 887" fill="none" xmlns="http://www.w3.org/2000/svg">
<g clip-path="url(#clip0_2492_19305)">
<rect width="1920" height="887" fill="#F4F5F7"/>
<g opacity="0.4" clip-path="url(#clip1_2492_19305)">
<path d="M1877.09 734C1805.73 734 1748 791.727 1748 863.089C1748 934.273 1805.73 992.177 1877.09 992.177C1948.27 992.177 2006.18 934.45 2006.18 863.089C2006 791.727 1948.27 734 1877.09 734ZM1877.09 983.855C1810.33 983.855 1756.32 929.846 1756.32 863.089C1756.32 796.331 1810.33 742.323 1877.09 742.323C1943.85 742.323 1997.85 796.331 1997.85 863.089C1997.85 929.669 1943.67 983.855 1877.09 983.855Z" fill="white"/>
<path d="M1877.09 761.801C1821.31 761.801 1775.98 807.132 1775.98 862.911C1775.98 918.69 1821.31 964.022 1877.09 964.022C1932.87 964.022 1978.2 918.867 1978.2 863.088C1978.2 807.132 1932.87 761.801 1877.09 761.801ZM1877.09 948.616C1829.81 948.616 1791.38 910.191 1791.38 862.911C1791.38 815.632 1829.81 777.206 1877.09 777.206C1924.37 777.206 1962.79 815.632 1962.79 862.911C1962.79 910.191 1924.37 948.616 1877.09 948.616Z" fill="white"/>
</g>
<g clip-path="url(#clip2_2492_19305)">
<path d="M245.681 567.92C245.681 568.974 244.892 569.764 243.84 569.764C242.789 569.764 242 568.974 242 567.92C242 566.866 242.789 566.076 243.84 566.076C244.892 566.076 245.681 566.954 245.681 567.92Z" fill="white"/>
<path d="M261.367 567.92C261.367 568.974 260.579 569.764 259.527 569.764C258.475 569.764 257.687 568.974 257.687 567.92C257.687 566.866 258.475 566.076 259.527 566.076C260.491 566.076 261.367 566.954 261.367 567.92Z" fill="white"/>
<path d="M276.966 567.92C276.966 568.974 276.178 569.764 275.126 569.764C274.074 569.764 273.286 568.974 273.286 567.92C273.286 566.866 274.074 566.076 275.126 566.076C276.178 566.076 276.966 566.954 276.966 567.92Z" fill="white"/>
<path d="M292.654 567.92C292.654 568.974 291.865 569.764 290.813 569.764C289.762 569.764 288.973 568.974 288.973 567.92C288.973 566.866 289.762 566.076 290.813 566.076C291.865 566.076 292.654 566.954 292.654 567.92Z" fill="white"/>
<path d="M308.34 567.92C308.34 568.974 307.552 569.764 306.5 569.764C305.448 569.764 304.66 568.974 304.66 567.92C304.66 566.866 305.448 566.076 306.5 566.076C307.464 566.076 308.34 566.954 308.34 567.92Z" fill="white"/>
<path d="M324.027 567.92C324.027 568.974 323.238 569.764 322.187 569.764C321.135 569.764 320.346 568.974 320.346 567.92C320.346 566.866 321.135 566.076 322.187 566.076C323.238 566.076 324.027 566.954 324.027 567.92Z" fill="white"/>
<path d="M339.626 567.92C339.626 568.974 338.837 569.764 337.786 569.764C336.734 569.764 335.945 568.974 335.945 567.92C335.945 566.866 336.734 566.076 337.786 566.076C338.837 566.076 339.626 566.954 339.626 567.92Z" fill="white"/>
<path d="M355.313 567.92C355.313 568.974 354.524 569.764 353.472 569.764C352.421 569.764 351.632 568.974 351.632 567.92C351.632 566.866 352.421 566.076 353.472 566.076C354.524 566.076 355.313 566.954 355.313 567.92Z" fill="white"/>
<path d="M371 567.92C371 568.974 370.211 569.764 369.16 569.764C368.108 569.764 367.319 568.974 367.319 567.92C367.319 566.866 368.108 566.076 369.16 566.076C370.124 566.076 371 566.954 371 567.92Z" fill="white"/>
<path d="M245.681 581.002C245.681 582.056 244.892 582.846 243.84 582.846C242.789 582.846 242 582.056 242 581.002C242 579.948 242.789 579.158 243.84 579.158C244.892 579.158 245.681 579.948 245.681 581.002Z" fill="white"/>
<path d="M261.367 581.002C261.367 582.056 260.579 582.846 259.527 582.846C258.475 582.846 257.687 582.056 257.687 581.002C257.687 579.948 258.475 579.158 259.527 579.158C260.491 579.158 261.367 579.948 261.367 581.002Z" fill="white"/>
<path d="M276.966 581.002C276.966 582.056 276.178 582.846 275.126 582.846C274.074 582.846 273.286 582.056 273.286 581.002C273.286 579.948 274.074 579.158 275.126 579.158C276.178 579.158 276.966 579.948 276.966 581.002Z" fill="white"/>
<path d="M292.654 581.002C292.654 582.056 291.865 582.846 290.813 582.846C289.762 582.846 288.973 582.056 288.973 581.002C288.973 579.948 289.762 579.158 290.813 579.158C291.865 579.158 292.654 579.948 292.654 581.002Z" fill="white"/>
<path d="M308.34 581.002C308.34 582.056 307.552 582.846 306.5 582.846C305.448 582.846 304.66 582.056 304.66 581.002C304.66 579.948 305.448 579.158 306.5 579.158C307.464 579.158 308.34 579.948 308.34 581.002Z" fill="white"/>
<path d="M324.027 581.002C324.027 582.056 323.238 582.846 322.187 582.846C321.135 582.846 320.346 582.056 320.346 581.002C320.346 579.948 321.135 579.158 322.187 579.158C323.238 579.158 324.027 579.948 324.027 581.002Z" fill="white"/>
<path d="M339.626 581.002C339.626 582.056 338.837 582.846 337.786 582.846C336.734 582.846 335.945 582.056 335.945 581.002C335.945 579.948 336.734 579.158 337.786 579.158C338.837 579.158 339.626 579.948 339.626 581.002Z" fill="white"/>
<path d="M355.313 581.002C355.313 582.056 354.524 582.846 353.472 582.846C352.421 582.846 351.632 582.056 351.632 581.002C351.632 579.948 352.421 579.158 353.472 579.158C354.524 579.158 355.313 579.948 355.313 581.002Z" fill="white"/>
<path d="M371 581.002C371 582.056 370.211 582.846 369.16 582.846C368.108 582.846 367.319 582.056 367.319 581.002C367.319 579.948 368.108 579.158 369.16 579.158C370.124 579.158 371 579.948 371 581.002Z" fill="white"/>
<path d="M245.681 541.844C245.681 542.897 244.892 543.688 243.84 543.688C242.789 543.688 242 542.897 242 541.844C242 540.79 242.789 540 243.84 540C244.892 540 245.681 540.79 245.681 541.844Z" fill="white"/>
<path d="M261.367 541.844C261.367 542.897 260.579 543.688 259.527 543.688C258.475 543.688 257.687 542.897 257.687 541.844C257.687 540.79 258.475 540 259.527 540C260.491 540 261.367 540.79 261.367 541.844Z" fill="white"/>
<path d="M276.966 541.844C276.966 542.897 276.178 543.688 275.126 543.688C274.074 543.688 273.286 542.897 273.286 541.844C273.286 540.79 274.162 540 275.126 540C276.178 540 276.966 540.79 276.966 541.844Z" fill="white"/>
<path d="M292.654 541.844C292.654 542.897 291.865 543.688 290.813 543.688C289.762 543.688 288.973 542.897 288.973 541.844C288.973 540.79 289.849 540 290.813 540C291.777 540 292.654 540.79 292.654 541.844Z" fill="white"/>
<path d="M308.34 541.844C308.34 542.897 307.552 543.688 306.5 543.688C305.448 543.688 304.66 542.897 304.66 541.844C304.66 540.79 305.448 540 306.5 540C307.464 540 308.34 540.79 308.34 541.844Z" fill="white"/>
<path d="M324.027 541.844C324.027 542.897 323.238 543.688 322.187 543.688C321.135 543.688 320.346 542.897 320.346 541.844C320.346 540.79 321.135 540 322.187 540C323.238 540 324.027 540.79 324.027 541.844Z" fill="white"/>
<path d="M339.626 541.844C339.626 542.897 338.837 543.688 337.786 543.688C336.734 543.688 335.945 542.897 335.945 541.844C335.945 540.79 336.734 540 337.786 540C338.837 540 339.626 540.79 339.626 541.844Z" fill="white"/>
<path d="M355.313 541.844C355.313 542.897 354.524 543.688 353.472 543.688C352.421 543.688 351.632 542.897 351.632 541.844C351.632 540.79 352.421 540 353.472 540C354.524 540 355.313 540.79 355.313 541.844Z" fill="white"/>
<path d="M371 541.844C371 542.897 370.211 543.688 369.16 543.688C368.108 543.688 367.319 542.897 367.319 541.844C367.319 540.79 368.108 540 369.16 540C370.124 540 371 540.79 371 541.844Z" fill="white"/>
<path d="M245.681 554.926C245.681 555.979 244.892 556.77 243.84 556.77C242.789 556.77 242 555.892 242 554.926C242 553.872 242.789 553.082 243.84 553.082C244.892 553.082 245.681 553.872 245.681 554.926Z" fill="white"/>
<path d="M261.367 554.926C261.367 555.979 260.579 556.77 259.527 556.77C258.475 556.77 257.687 555.979 257.687 554.926C257.687 553.872 258.475 553.082 259.527 553.082C260.491 553.082 261.367 553.872 261.367 554.926Z" fill="white"/>
<path d="M276.966 554.926C276.966 555.979 276.178 556.77 275.126 556.77C274.074 556.77 273.286 555.979 273.286 554.926C273.286 553.872 274.074 553.082 275.126 553.082C276.178 553.082 276.966 553.872 276.966 554.926Z" fill="white"/>
<path d="M292.654 554.926C292.654 555.979 291.865 556.77 290.813 556.77C289.762 556.77 288.973 555.979 288.973 554.926C288.973 553.872 289.762 553.082 290.813 553.082C291.865 553.082 292.654 553.872 292.654 554.926Z" fill="white"/>
<path d="M308.34 554.926C308.34 555.979 307.552 556.77 306.5 556.77C305.448 556.77 304.66 555.979 304.66 554.926C304.66 553.872 305.448 553.082 306.5 553.082C307.464 553.082 308.34 553.872 308.34 554.926Z" fill="white"/>
<path d="M324.027 554.926C324.027 555.979 323.238 556.77 322.187 556.77C321.135 556.77 320.346 555.979 320.346 554.926C320.346 553.872 321.135 553.082 322.187 553.082C323.238 553.082 324.027 553.872 324.027 554.926Z" fill="white"/>
<path d="M339.626 554.926C339.626 555.979 338.837 556.77 337.786 556.77C336.734 556.77 335.945 555.979 335.945 554.926C335.945 553.872 336.734 553.082 337.786 553.082C338.837 553.082 339.626 553.872 339.626 554.926Z" fill="white"/>
<path d="M355.313 554.926C355.313 555.979 354.524 556.77 353.472 556.77C352.421 556.77 351.632 555.979 351.632 554.926C351.632 553.872 352.421 553.082 353.472 553.082C354.524 553.082 355.313 553.872 355.313 554.926Z" fill="white"/>
<path d="M371 554.926C371 555.979 370.211 556.77 369.16 556.77C368.108 556.77 367.319 555.979 367.319 554.926C367.319 553.872 368.108 553.082 369.16 553.082C370.124 553.082 371 553.872 371 554.926Z" fill="white"/>
<path d="M245.681 593.998C245.681 595.052 244.892 595.842 243.84 595.842C242.789 595.842 242 595.052 242 593.998C242 592.944 242.789 592.154 243.84 592.154C244.892 592.154 245.681 593.032 245.681 593.998Z" fill="white"/>
<path d="M261.367 593.998C261.367 595.052 260.579 595.842 259.527 595.842C258.475 595.842 257.687 595.052 257.687 593.998C257.687 592.944 258.475 592.154 259.527 592.154C260.491 592.154 261.367 593.032 261.367 593.998Z" fill="white"/>
<path d="M276.966 593.998C276.966 595.052 276.178 595.842 275.126 595.842C274.074 595.842 273.286 595.052 273.286 593.998C273.286 592.944 274.074 592.154 275.126 592.154C276.178 592.154 276.966 593.032 276.966 593.998Z" fill="white"/>
<path d="M292.654 593.998C292.654 595.052 291.865 595.842 290.813 595.842C289.762 595.842 288.973 595.052 288.973 593.998C288.973 592.944 289.762 592.154 290.813 592.154C291.865 592.154 292.654 593.032 292.654 593.998Z" fill="white"/>
<path d="M308.34 593.998C308.34 595.052 307.552 595.842 306.5 595.842C305.448 595.842 304.66 595.052 304.66 593.998C304.66 592.944 305.448 592.154 306.5 592.154C307.464 592.154 308.34 593.032 308.34 593.998Z" fill="white"/>
<path d="M324.027 593.998C324.027 595.052 323.238 595.842 322.187 595.842C321.135 595.842 320.346 595.052 320.346 593.998C320.346 592.944 321.135 592.154 322.187 592.154C323.238 592.154 324.027 593.032 324.027 593.998Z" fill="white"/>
<path d="M339.626 593.998C339.626 595.052 338.837 595.842 337.786 595.842C336.734 595.842 335.945 595.052 335.945 593.998C335.945 592.944 336.734 592.154 337.786 592.154C338.837 592.154 339.626 593.032 339.626 593.998Z" fill="white"/>
<path d="M355.313 593.998C355.313 595.052 354.524 595.842 353.472 595.842C352.421 595.842 351.632 595.052 351.632 593.998C351.632 592.944 352.421 592.154 353.472 592.154C354.524 592.154 355.313 593.032 355.313 593.998Z" fill="white"/>
<path d="M371 593.998C371 595.052 370.211 595.842 369.16 595.842C368.108 595.842 367.319 595.052 367.319 593.998C367.319 592.944 368.108 592.154 369.16 592.154C370.124 592.154 371 593.032 371 593.998Z" fill="white"/>
<path d="M245.681 607.08C245.681 608.134 244.892 608.924 243.84 608.924C242.789 608.924 242 608.134 242 607.08C242 606.027 242.789 605.236 243.84 605.236C244.892 605.236 245.681 606.027 245.681 607.08Z" fill="white"/>
<path d="M261.367 607.08C261.367 608.134 260.579 608.924 259.527 608.924C258.475 608.924 257.687 608.134 257.687 607.08C257.687 606.027 258.475 605.236 259.527 605.236C260.491 605.236 261.367 606.027 261.367 607.08Z" fill="white"/>
<path d="M276.966 607.08C276.966 608.134 276.178 608.924 275.126 608.924C274.074 608.924 273.286 608.134 273.286 607.08C273.286 606.027 274.074 605.236 275.126 605.236C276.178 605.236 276.966 606.027 276.966 607.08Z" fill="white"/>
<path d="M290.813 608.924C291.83 608.924 292.654 608.098 292.654 607.08C292.654 606.062 291.83 605.236 290.813 605.236C289.797 605.236 288.973 606.062 288.973 607.08C288.973 608.098 289.797 608.924 290.813 608.924Z" fill="white"/>
<path d="M308.34 607.08C308.34 608.134 307.552 608.924 306.5 608.924C305.448 608.924 304.66 608.134 304.66 607.08C304.66 606.027 305.448 605.236 306.5 605.236C307.464 605.236 308.34 606.027 308.34 607.08Z" fill="white"/>
<path d="M324.027 607.08C324.027 608.134 323.238 608.924 322.187 608.924C321.135 608.924 320.346 608.134 320.346 607.08C320.346 606.027 321.135 605.236 322.187 605.236C323.238 605.236 324.027 606.027 324.027 607.08Z" fill="white"/>
<path d="M339.626 607.08C339.626 608.134 338.837 608.924 337.786 608.924C336.734 608.924 335.945 608.134 335.945 607.08C335.945 606.027 336.734 605.236 337.786 605.236C338.837 605.236 339.626 606.027 339.626 607.08Z" fill="white"/>
<path d="M353.472 608.924C354.489 608.924 355.313 608.098 355.313 607.08C355.313 606.062 354.489 605.236 353.472 605.236C352.456 605.236 351.632 606.062 351.632 607.08C351.632 608.098 352.456 608.924 353.472 608.924Z" fill="white"/>
<path d="M371 607.08C371 608.134 370.211 608.924 369.16 608.924C368.108 608.924 367.319 608.134 367.319 607.08C367.319 606.027 368.108 605.236 369.16 605.236C370.124 605.236 371 606.027 371 607.08Z" fill="white"/>
<path d="M245.681 620.162C245.681 621.216 244.892 622.006 243.84 622.006C242.789 622.006 242 621.216 242 620.162C242 619.109 242.789 618.318 243.84 618.318C244.892 618.318 245.681 619.109 245.681 620.162Z" fill="white"/>
<path d="M261.367 620.162C261.367 621.216 260.579 622.006 259.527 622.006C258.475 622.006 257.687 621.216 257.687 620.162C257.687 619.109 258.475 618.318 259.527 618.318C260.491 618.318 261.367 619.109 261.367 620.162Z" fill="white"/>
<path d="M276.966 620.162C276.966 621.216 276.178 622.006 275.126 622.006C274.074 622.006 273.286 621.216 273.286 620.162C273.286 619.109 274.074 618.318 275.126 618.318C276.178 618.318 276.966 619.109 276.966 620.162Z" fill="white"/>
<path d="M292.654 620.162C292.654 621.216 291.865 622.006 290.813 622.006C289.762 622.006 288.973 621.216 288.973 620.162C288.973 619.109 289.762 618.318 290.813 618.318C291.865 618.318 292.654 619.109 292.654 620.162Z" fill="white"/>
<path d="M308.34 620.162C308.34 621.216 307.552 622.006 306.5 622.006C305.448 622.006 304.66 621.216 304.66 620.162C304.66 619.109 305.448 618.318 306.5 618.318C307.464 618.318 308.34 619.109 308.34 620.162Z" fill="white"/>
<path d="M324.027 620.162C324.027 621.216 323.238 622.006 322.187 622.006C321.135 622.006 320.346 621.216 320.346 620.162C320.346 619.109 321.135 618.318 322.187 618.318C323.238 618.318 324.027 619.109 324.027 620.162Z" fill="white"/>
<path d="M339.626 620.162C339.626 621.216 338.837 622.006 337.786 622.006C336.734 622.006 335.945 621.216 335.945 620.162C335.945 619.109 336.734 618.318 337.786 618.318C338.837 618.318 339.626 619.109 339.626 620.162Z" fill="white"/>
<path d="M355.313 620.162C355.313 621.216 354.524 622.006 353.472 622.006C352.421 622.006 351.632 621.216 351.632 620.162C351.632 619.109 352.421 618.318 353.472 618.318C354.524 618.318 355.313 619.109 355.313 620.162Z" fill="white"/>
<path d="M371 620.162C371 621.216 370.211 622.006 369.16 622.006C368.108 622.006 367.319 621.216 367.319 620.162C367.319 619.109 368.108 618.318 369.16 618.318C370.124 618.318 371 619.109 371 620.162Z" fill="white"/>
<path d="M245.681 633.156C245.681 634.21 244.892 635 243.84 635C242.789 635 242 634.21 242 633.156C242 632.103 242.789 631.312 243.84 631.312C244.892 631.312 245.681 632.191 245.681 633.156Z" fill="white"/>
<path d="M261.367 633.156C261.367 634.21 260.579 635 259.527 635C258.475 635 257.687 634.21 257.687 633.156C257.687 632.103 258.475 631.312 259.527 631.312C260.491 631.312 261.367 632.191 261.367 633.156Z" fill="white"/>
<path d="M276.966 633.156C276.966 634.21 276.178 635 275.126 635C274.074 635 273.286 634.21 273.286 633.156C273.286 632.103 274.074 631.312 275.126 631.312C276.178 631.312 276.966 632.191 276.966 633.156Z" fill="white"/>
<path d="M292.654 633.156C292.654 634.21 291.865 635 290.813 635C289.762 635 288.973 634.21 288.973 633.156C288.973 632.103 289.762 631.312 290.813 631.312C291.865 631.312 292.654 632.191 292.654 633.156Z" fill="white"/>
<path d="M308.34 633.156C308.34 634.21 307.552 635 306.5 635C305.448 635 304.66 634.21 304.66 633.156C304.66 632.103 305.448 631.312 306.5 631.312C307.464 631.312 308.34 632.191 308.34 633.156Z" fill="white"/>
<path d="M324.027 633.156C324.027 634.21 323.238 635 322.187 635C321.135 635 320.346 634.21 320.346 633.156C320.346 632.103 321.135 631.312 322.187 631.312C323.238 631.312 324.027 632.191 324.027 633.156Z" fill="white"/>
<path d="M339.626 633.156C339.626 634.21 338.837 635 337.786 635C336.734 635 335.945 634.21 335.945 633.156C335.945 632.103 336.734 631.312 337.786 631.312C338.837 631.312 339.626 632.191 339.626 633.156Z" fill="white"/>
<path d="M355.313 633.156C355.313 634.21 354.524 635 353.472 635C352.421 635 351.632 634.21 351.632 633.156C351.632 632.103 352.421 631.312 353.472 631.312C354.524 631.312 355.313 632.191 355.313 633.156Z" fill="white"/>
<path d="M371 633.156C371 634.21 370.211 635 369.16 635C368.108 635 367.319 634.21 367.319 633.156C367.319 632.103 368.108 631.312 369.16 631.312C370.124 631.312 371 632.191 371 633.156Z" fill="white"/>
</g>
<g opacity="0.6">
<path d="M1766.14 329.026L1766.14 319.001L1793 319.001L1793 345.787L1782.9 345.787L1782.9 329.026L1766.14 329.026Z" fill="white"/>
<path d="M1748 347.239L1748 337.137L1774.79 337.137L1774.79 364L1764.76 364L1764.76 347.239L1748 347.239Z" fill="white"/>
</g>
</g>
<defs>
<clipPath id="clip0_2492_19305">
<rect width="1920" height="887" fill="white"/>
</clipPath>
<clipPath id="clip1_2492_19305">
<rect width="258" height="258" fill="white" transform="translate(1748 734)"/>
</clipPath>
<clipPath id="clip2_2492_19305">
<rect width="129" height="95" fill="white" transform="translate(242 540)"/>
</clipPath>
</defs>
</svg>
